<svg xmlns="http://www.w3.org/2000/svg" viewBox="0 0 142.61 178.52"><defs><style>.cls-1{fill:#0f9b5f;}</style></defs><g id="Layer_2" data-name="Layer 2"><g id="Layer_1-2" data-name="Layer 1"><path class="cls-1" d="M137.81,117.88v60.64H5.66V117.88ZM70.2,134.11c0,.8-.29,1.51.19,2.21l1.84.29c0,1.74,0,3.45,0,5.16a3.18,3.18,0,0,0,1.81,3.06,4.89,4.89,0,0,0,4.3-.13,5.12,5.12,0,0,0-.83-2c-.93-.1-2.19.45-2.48-.91A16.61,16.61,0,0,1,75,136.5a27.53,27.53,0,0,1,5.05.08c0,1.64,0,3.21,0,4.78.07,3.37,2.91,4.94,6,3.31a3.67,3.67,0,0,0-.59-1.9c-.45-.24-.86,0-1.27-.05a1.28,1.28,0,0,1-1.41-1.25,29.09,29.09,0,0,1,0-4.76c1-.55,2,0,2.83-.53a2.85,2.85,0,0,0-.08-2.05c-.84-.31-1.78.1-2.56-.33-.42-.91.06-1.9-.43-2.79a3.73,3.73,0,0,0-2.34.29c-.29.9,0,1.78-.34,2.59H75.19c-.49-1,0-2-.49-2.92a4.07,4.07,0,0,0-2.31.32c-.37.87,0,1.75-.39,2.6Zm-8.58,29.35c.15-4.62,1.18-12.39-5.83-11A5.06,5.06,0,0,0,53.42,154c-2.29-2.13-3.64-2.28-6.12-.71l-.64-.88a6.49,6.49,0,0,0-2.14.2v10.83a4.52,4.52,0,0,0,2.65-.09,64.7,64.7,0,0,1,.15-6.54,2.07,2.07,0,0,1,2.21-1.91c2.1,0,2.24,2.22,2.18,3.82s0,3.13,0,4.69a4.19,4.19,0,0,0,2.76-.1c0-2-.08-4,.05-6a2.37,2.37,0,0,1,2.38-2.42c3.36.1,1.42,6.26,2.16,8.5A5,5,0,0,0,61.62,163.46Zm5.95-.58c12.61,5.56,11.45-15.81,0-9.38-.45-.17-.14-.83-.7-1a4,4,0,0,0-2,.16v15.52a4.79,4.79,0,0,0,2.44,0C67.67,166.4,67.22,164.67,67.57,162.88Zm14.25-.11c3.38,1.51,5.58,1.46,7.4-.22A5.64,5.64,0,0,0,90.68,156c-1.75-4.34-5-4.8-8.77-2.52-.27-.26-.08-.76-.56-1a3.17,3.17,0,0,0-2.08.2v15.45a4.14,4.14,0,0,0,2.55-.14Zm23,.68V152.61a4.73,4.73,0,0,0-2-.13c-.69.12-.48.84-1,.88-2.74-1.7-5.8-1.42-7.59.66-3.86,5.32,1,12.93,7.73,8.6.41.18.22.83.81.94A5.8,5.8,0,0,0,104.79,163.45ZM95.15,135c-2.75-1.83-5.81-1.64-7.69.46-4,5.35,1.07,13.17,7.73,8.58.35.24.06.85.57,1a4.68,4.68,0,0,0,2.08-.14V134.1a6.45,6.45,0,0,0-2.18,0C95.25,134.29,95.55,134.83,95.15,135Zm28.35,10.07V134h-2.09c-.52.22-.2.78-.59,1-2.91-1.82-5.92-1.61-7.77.53-3.86,5.38,1,13,7.78,8.55.41.21,0,.86.59,1Zm-54.84-1.45a3.63,3.63,0,0,0-1.59-1.54c-3.43,1.4-5.68.89-5.92-1.53h8.12c1.58-7.24-7.42-9.27-10.51-4.1-1.4,2.66-.74,6.22,1.46,7.84A6.91,6.91,0,0,0,68.66,143.64ZM21.57,156.51l-.34-.09V148a3.75,3.75,0,0,0-2.54,0,130.81,130.81,0,0,0,.06,15.49,3.83,3.83,0,0,0,2.39-.11c.33-1.44-.12-2.89.34-4.49l4.07,4.69c1-.08,2.07.25,3.21-.25l-5-5.62,4.54-5.19H25Zm15-17a5.52,5.52,0,0,0,5.68,5.89c7.67,0,7.62-11.68,0-11.67A5.52,5.52,0,0,0,36.56,139.53Zm-5.87,13.09c0,2.1-.06,4.14,0,6.17.26,5,4.12,6.18,8.11,3.72l.45,1a3.91,3.91,0,0,0,2.17-.14V152.5c-.91,0-1.72-.27-2.54.21-.15,1.87,0,3.72-.09,5.58-.1,3.78-5.36,4.15-5.37.06-.16-1.86.29-4.08-.27-5.83A6.36,6.36,0,0,0,30.69,152.62Zm1.46-18.53a3.23,3.23,0,0,0-.23,1.73c0,1.44,0,2.89-.07,4.32a2.71,2.71,0,0,1-3.79,2.44,2.66,2.66,0,0,1-1.54-2.73c0-1.89,0-3.78,0-5.76a7.05,7.05,0,0,0-2.75.07c0,2.49-.27,5,.18,7.37.65,4,5.1,4.8,7.86,2.48.46.27.16.9.83,1.11a4.44,4.44,0,0,0,1.89-.17V134.14A5.64,5.64,0,0,0,32.15,134.09Zm86.32,29.28a36,36,0,0,0-.14-7c-.79-4.24-4.68-5.07-8-2.72-.25-.4-.15-.92-.67-1.13a3.59,3.59,0,0,0-1.94.17v10.8a4.1,4.1,0,0,0,2.36,0c.56-2.14-.14-4.29.38-6.43.57-2.94,5-2.86,5.25.29.11,2.05,0,4.15,0,6.19A5.14,5.14,0,0,0,118.47,163.37ZM108.08,134c-1.28,2.57-2,5.25-3.24,8.09-1.17-2.88-2-5.59-3.23-8.06a8.46,8.46,0,0,0-2.87.08l4.6,10.94a8.47,8.47,0,0,0,3.06-.08c1.58-3.72,3-7.16,4.6-11ZM50.77,136.6c0,1.67-.05,3.33,0,5,.13,3.19,3.27,4.75,6.08,3a5.27,5.27,0,0,0-.72-1.88c-.92-.15-2.24.49-2.5-.88a18,18,0,0,1-.06-5.12c1-.47,2,0,2.79-.48a2.42,2.42,0,0,0-.07-2.1c-.87-.26-1.79.09-2.62-.28-.38-.92.06-1.91-.41-2.85a4.18,4.18,0,0,0-2.34.31c-.35.86,0,1.75-.36,2.59l-1.73.24a2.57,2.57,0,0,0,.08,2.2Zm-32,8.45a4.46,4.46,0,0,0,2.4-.12V129.46a3.86,3.86,0,0,0-2.4,0Zm105.17,18.4V152.5a5.75,5.75,0,0,0-2.46.08v10.9A5.67,5.67,0,0,0,123.92,163.45Zm.31-14.08a1.57,1.57,0,1,0-3.14-.11C120.9,151.42,124.31,151.52,124.23,149.37Z"/><path class="cls-1" d="M66.33,70.3c.33-.36.72-.76,1.07-1.18Q80.72,53.64,94,38.15c3-3.49,6-3.69,9.51-.68,3.93,3.34,7.83,6.71,11.74,10.08a5.76,5.76,0,0,1,.61,8.63Q100.71,73.85,85.54,91.51c-3.6,4.19-7.16,8.42-10.74,12.64a5.74,5.74,0,0,1-8.71.67l-34.83-30c-2.81-2.42-3.12-5.69-.74-8.48Q35,61,39.62,55.72c2.63-3,5.71-3.23,8.78-.6C54,59.89,59.53,64.7,65.1,69.48A2.48,2.48,0,0,0,66.33,70.3Z"/><path class="cls-1" d="M123.47,112.19C144.56,85.67,141.46,45,116,22.6,53.13-31-28.52,47.82,19.15,112.35H13C-7.81,84.29-3,41.91,23,18.81,65.1-20,134,4.73,141.89,61.36a70.36,70.36,0,0,1-11.36,49.7,2.73,2.73,0,0,1-2.72,1.47c-1.25-.11-2.51,0-3.77-.07C123.92,112.46,123.8,112.36,123.47,112.19Z"/><path class="cls-1" d="M70.79,161.15A3,3,0,0,1,67.71,158a2.91,2.91,0,0,1,3.07-3.05,3,3,0,0,1,3.13,3.18A3.06,3.06,0,0,1,70.79,161.15Z"/><path class="cls-1" d="M85.2,161.15a3.08,3.08,0,0,1-3.12-3.07,3,3,0,0,1,3.14-3.17A3,3,0,0,1,88.33,158,3,3,0,0,1,85.2,161.15Z"/><path class="cls-1" d="M102.11,158.07A3.21,3.21,0,1,1,95.7,158a3.21,3.21,0,1,1,6.41.07Z"/><path class="cls-1" d="M95.21,139.63a3.1,3.1,0,0,1-3.17,3.3,3.23,3.23,0,0,1-3.25-3.42,3.19,3.19,0,0,1,3.37-3.29A3.1,3.1,0,0,1,95.21,139.63Z"/><path class="cls-1" d="M120.87,139.65a3.11,3.11,0,0,1-3.2,3.28,3.21,3.21,0,0,1-3.22-3.44,3.17,3.17,0,0,1,3.37-3.27A3.12,3.12,0,0,1,120.87,139.65Z"/><path class="cls-1" d="M61.18,138.17c.45-1.52,1.31-2.07,3-2a2.3,2.3,0,0,1,2.55,2A36.22,36.22,0,0,1,61.18,138.17Z"/><path class="cls-1" d="M39.3,139.59a3,3,0,0,1,2.86-3.31,3.12,3.12,0,0,1,3.05,3.29,3,3,0,1,1-5.91,0Z"/></g></g></svg>