<svg xmlns="http://www.w3.org/2000/svg" viewBox="0 0 89.54 22.19"><g data-name="Layer 2"><path d="M0 .07h11.34v2.8L4.5 9.38H0zm26 0H14.66v2.8l6.84 6.51H26zM0 12.64v9.53h11.34v-3.73H6.21v-5.8zm19.8 0v5.8h-5.14v3.73H26v-9.53zm14.69.06V8.51c0-.15.09-.22.25-.22h1.37l2 4.41a.59.59 0 00.26.34 1.2 1.2 0 00.53.08h1.7c.35 0 .47-.16.34-.49l-2.18-4.55V8a3 3 0 001.82-3.06V3.35a3.29 3.29 0 00-.9-2.47A3.4 3.4 0 0037.19 0h-4.86a.38.38 0 00-.43.43V12.7a.38.38 0 00.43.42h1.74a.37.37 0 00.42-.42zm0-6.72V2.47c0-.15.08-.22.23-.22h2a1.39 1.39 0 011 .28 1.23 1.23 0 01.3.92V5a1.15 1.15 0 01-.3.89 1.45 1.45 0 01-1 .28h-2a.21.21 0 01-.23-.17zM45.33 0H43.6a.38.38 0 00-.43.43V12.7a.37.37 0 00.43.42h1.73a.37.37 0 00.43-.42V.43a.38.38 0 00-.43-.43zm11.13 12.27a3.32 3.32 0 00.87-2.47V3.33a3.3 3.3 0 00-.87-2.47A3.44 3.44 0 0054 0h-2.32a3.41 3.41 0 00-2.49.86 3.27 3.27 0 00-.88 2.47V9.8a3.29 3.29 0 00.88 2.47 3.4 3.4 0 002.49.85H54a3.43 3.43 0 002.46-.85zm-5.29-1.67a1.29 1.29 0 01-.27-.93V3.45a1.29 1.29 0 01.27-.93 1.26 1.26 0 01.92-.27h1.45a1.32 1.32 0 01.93.27 1.29 1.29 0 01.27.93v6.22a1.29 1.29 0 01-.27.93 1.28 1.28 0 01-.93.28h-1.45a1.22 1.22 0 01-.92-.28zm11.2 2.1V8.35c0-.15.09-.23.25-.23h3.49a.39.39 0 00.43-.45V6.31a.38.38 0 00-.43-.43h-3.49a.22.22 0 01-.25-.25V2.47c0-.15.09-.22.25-.22h4.1a.38.38 0 00.41-.43V.43c0-.29-.13-.43-.41-.43h-6.51a.38.38 0 00-.43.43V12.7a.38.38 0 00.43.42H62a.37.37 0 00.37-.42zm14.54-.43a3.32 3.32 0 00.87-2.47V3.33a3.3 3.3 0 00-.87-2.47A3.44 3.44 0 0074.42 0h-2.29a3.41 3.41 0 00-2.49.86 3.27 3.27 0 00-.88 2.47V9.8a3.29 3.29 0 00.88 2.47 3.4 3.4 0 002.49.85h2.29a3.43 3.43 0 002.49-.85zm-5.29-1.67a1.29 1.29 0 01-.27-.93V3.45a1.29 1.29 0 01.27-.93 1.26 1.26 0 01.92-.27H74a1.32 1.32 0 01.93.27 1.29 1.29 0 01.27.93v6.22a1.29 1.29 0 01-.27.93 1.28 1.28 0 01-.93.28h-1.46a1.22 1.22 0 01-.92-.28zm11.21 2.1V8.51c0-.15.08-.22.24-.22h1.37l2 4.41a.59.59 0 00.26.34 1.2 1.2 0 00.53.08h1.66c.35 0 .47-.16.34-.49l-2.14-4.55V8a3 3 0 001.82-3.06V3.35A3.29 3.29 0 0088 .88 3.4 3.4 0 0085.52 0h-4.86a.38.38 0 00-.43.43V12.7a.38.38 0 00.43.42h1.74a.38.38 0 00.43-.42zm0-6.72V2.47a.19.19 0 01.22-.22h2a1.38 1.38 0 011 .28 1.23 1.23 0 01.31.92V5a1.15 1.15 0 01-.31.89 1.43 1.43 0 01-1 .28h-2c-.15.04-.22-.04-.22-.17zm-47.42 10.6L34 20.24l-1.46-3.66a.09.09 0 00-.1-.07h-.72a.11.11 0 00-.12.12v5.44a.11.11 0 00.12.12H32a.11.11 0 00.12-.12v-4.71l1.4 3.48a.13.13 0 00.15.11h.42a.16.16 0 00.16-.11l1.37-3.47v4.7a.11.11 0 00.12.12h.39c.08 0 .13 0 .13-.12v-5.44c0-.08 0-.12-.13-.12h-.71c.04 0 0 .02-.01.07zm5.92.05v4.23a.67.67 0 01-.75.77h-.83c-.49 0-.73-.26-.73-.77v-4.23c0-.08 0-.12-.13-.12h-.39c-.09 0-.13 0-.13.12v4.25a1.31 1.31 0 00.35 1 1.3 1.3 0 001 .34h1A1.18 1.18 0 0042 20.88v-4.26c0-.08 0-.11-.12-.11h-.4c-.12 0-.15.04-.15.12zm5.56 0v4.23a.67.67 0 01-.75.77h-.83c-.49 0-.73-.26-.73-.77v-4.23a.11.11 0 00-.12-.12h-.4c-.09 0-.13 0-.13.12v4.25a1.31 1.31 0 00.35 1 1.33 1.33 0 001 .34h1a1.18 1.18 0 001.3-1.31v-4.29c0-.08 0-.11-.12-.11H47c-.07 0-.11.04-.11.12zm3.29 5.44V20c0-.06 0-.08.09-.08h1.17l1 2.14a.24.24 0 00.22.12h.4c.11 0 .14 0 .09-.14l-1-2.15a1.16 1.16 0 00.67-.43 1.42 1.42 0 00.23-.82v-.81a1.29 1.29 0 00-.35-1 1.31 1.31 0 00-1-.34h-2a.11.11 0 00-.12.12v5.44a.11.11 0 00.12.12h.4a.11.11 0 00.08-.1zm0-2.76v-2.16s0-.08.09-.08h1.34a.68.68 0 01.76.77v.79a.67.67 0 01-.76.76h-1.34c-.06 0-.09-.03-.09-.08zm5 2.76l.41-1.29h2.14l.42 1.29q0 .12.12.12h.45c.08 0 .1 0 .08-.12l-1.65-5.44a.16.16 0 00-.17-.12h-.64a.16.16 0 00-.17.12l-1.67 5.44c0 .08 0 .12.08.12H55c.09 0 .13-.04.16-.12zm1.5-4.9l.91 3.06h-1.88l.91-3.06zm6.64-.54v4.23a.67.67 0 01-.74.77h-.84c-.48 0-.73-.26-.73-.77v-4.23a.11.11 0 00-.12-.12h-.4c-.08 0-.13 0-.13.12v4.25a1.31 1.31 0 00.35 1 1.33 1.33 0 001 .34h1a1.18 1.18 0 001.3-1.31v-4.29c0-.08 0-.11-.12-.11h-.4c-.15 0-.19.04-.19.12zm2.94 5.21a1.29 1.29 0 001 .35h1a1.21 1.21 0 001.3-1.31v-.4a1.28 1.28 0 00-.16-.67 1 1 0 00-.43-.42 3.63 3.63 0 00-.59-.23c-.21-.06-.42-.11-.64-.15a4.52 4.52 0 01-.58-.13c-.4-.11-.59-.31-.59-.61v-.36q0-.84.78-.84h.75a.71.71 0 01.79.81V18c0 .08 0 .13.12.13h.4c.08 0 .12-.05.12-.13v-.23a1.21 1.21 0 00-1.31-1.3h-1a1.3 1.3 0 00-1 .34 1.33 1.33 0 00-.35 1v.44a1.09 1.09 0 00.31.83 1.54 1.54 0 00.75.41c.3.08.59.14.89.19.7.13 1 .41 1 .83v.3a.71.71 0 01-.79.82h-.78a.7.7 0 01-.78-.8v-.23c0-.08-.05-.12-.13-.12H66a.11.11 0 00-.12.12v.28a1.3 1.3 0 00.36.96zm6.79.23v-4.92s0-.08.09-.08h1.21c.08 0 .13 0 .13-.12v-.32c0-.08 0-.12-.13-.12H71.1c-.09 0-.13 0-.13.12V17c0 .08 0 .12.13.12h1.2c.06 0 .09 0 .09.08v4.92a.11.11 0 00.12.12h.4a.11.11 0 00.09-.17zm4.76 0v-2l1.69-3.42c0-.09 0-.13-.08-.13h-.5a.14.14 0 00-.14.12l-1.28 2.67-1.27-2.68a.16.16 0 00-.15-.12h-.57a.09.09 0 000 .1l1.68 3.42v2a.11.11 0 00.12.12h.4a.11.11 0 00.08-.08zm6.49-.23a1.3 1.3 0 00.35-1v-3.03a1.33 1.33 0 00-.35-1 1.3 1.3 0 00-1-.34h-1a1.3 1.3 0 00-1 .34 1.26 1.26 0 00-.35 1v3.07a1.27 1.27 0 00.35 1 1.3 1.3 0 001 .34h1a1.26 1.26 0 00.98-.38zm-2.68-1v-3a.67.67 0 01.74-.77h.9a.67.67 0 01.74.77v3a.67.67 0 01-.74.77h-.9a.67.67 0 01-.76-.75zm.24-4.92h.38a.11.11 0 00.12-.12v-.91c0-.07 0-.11-.12-.11h-.38c-.07 0-.11 0-.11.12v.9c-.02.1.02.14.09.14zm1.51 0h.38a.11.11 0 00.12-.12v-.91c0-.07 0-.11-.12-.11h-.38c-.07 0-.11 0-.11.12v.9c-.02.1.02.14.09.14zm4.76 6.13v-4.9s0-.08.09-.08h1.2c.09 0 .14 0 .14-.12v-.32c0-.08-.05-.12-.14-.12h-3.24c-.09 0-.14 0-.14.12V17c0 .08 0 .12.14.12h1.2c.06 0 .09 0 .09.08v4.92a.11.11 0 00.12.12H88a.11.11 0 00.11-.17z" data-name="Layer 1"/></g></svg>