<svg xmlns="http://www.w3.org/2000/svg" xmlns:xlink="http://www.w3.org/1999/xlink" viewBox="0 0 754.07 769.51"><defs><linearGradient id="Безымянный_градиент_102" x1="390.75" y1="297.36" x2="472.29" y2="288.37" gradientUnits="userSpaceOnUse"><stop offset="0" stop-color="#9b907e"/><stop offset="0" stop-color="#988d7c"/><stop offset="1" stop-color="#424242"/></linearGradient><linearGradient id="Безымянный_градиент_71" x1="409.55" y1="479.12" x2="469.16" y2="449.11" gradientUnits="userSpaceOnUse"><stop offset="0" stop-color="#b7a991"/><stop offset="1" stop-color="#3a3a3a"/></linearGradient><linearGradient id="Безымянный_градиент_65" x1="100.84" y1="272.41" x2="129.67" y2="289.43" gradientUnits="userSpaceOnUse"><stop offset="0" stop-color="#3a3a3a"/><stop offset=".68" stop-color="#3a3a3a" stop-opacity="0"/></linearGradient><linearGradient id="Безымянный_градиент_65-2" x1="51.45" y1="301.15" x2="80.28" y2="318.17" xlink:href="#Безымянный_градиент_65"/><linearGradient id="Безымянный_градиент_50" x1="165.14" y1="285.84" x2="170.14" y2="285.83" gradientUnits="userSpaceOnUse"><stop offset="0" stop-color="#e6efef"/><stop offset=".66" stop-color="#999"/><stop offset="1" stop-color="#acadad"/></linearGradient><linearGradient id="Безымянный_градиент_33" x1="165.14" y1="260.61" x2="170.14" y2="260.61" gradientUnits="userSpaceOnUse"><stop offset="0" stop-color="#e6efef"/><stop offset="1" stop-color="#cad1d1"/></linearGradient><linearGradient id="Безымянный_градиент_50-2" x1="46.11" y1="275.62" x2="51.11" y2="275.61" xlink:href="#Безымянный_градиент_50"/><linearGradient id="Безымянный_градиент_33-2" x1="46.11" y1="250.4" x2="51.11" y2="250.4" xlink:href="#Безымянный_градиент_33"/><linearGradient id="Безымянный_градиент_50-3" x1="95.41" y1="246.92" x2="100.41" y2="246.91" xlink:href="#Безымянный_градиент_50"/><linearGradient id="Безымянный_градиент_33-3" x1="95.41" y1="221.7" x2="100.41" y2="221.7" xlink:href="#Безымянный_градиент_33"/><linearGradient id="Безымянный_градиент_79" x1="83.09" y1="298.99" x2="142.79" y2="334.23" gradientUnits="userSpaceOnUse"><stop offset="0" stop-color="#3a3a3a"/><stop offset=".93" stop-color="#3a3a3a" stop-opacity="0"/></linearGradient><linearGradient id="Безымянный_градиент_50-4" x1="113.65" y1="315.03" x2="118.65" y2="315.02" xlink:href="#Безымянный_градиент_50"/><linearGradient id="Безымянный_градиент_33-4" x1="113.65" y1="289.8" x2="118.65" y2="289.8" xlink:href="#Безымянный_градиент_33"/><linearGradient id="Безымянный_градиент_65-3" x1="305.73" y1="172.06" x2="320.37" y2="180.7" xlink:href="#Безымянный_градиент_65"/><linearGradient id="Безымянный_градиент_50-5" x1="303.12" y1="155.41" x2="306.22" y2="155.41" xlink:href="#Безымянный_градиент_50"/><linearGradient id="Безымянный_градиент_33-5" x1="303.12" y1="139.25" x2="306.22" y2="139.25" xlink:href="#Безымянный_градиент_33"/><linearGradient id="Безымянный_градиент_78" x1="288.09" y1="147.88" x2="322.92" y2="130.35" gradientUnits="userSpaceOnUse"><stop offset="0" stop-color="#cad1d1"/><stop offset=".84" stop-color="#605c53"/><stop offset="1" stop-color="#cad1d1"/></linearGradient><linearGradient id="Безымянный_градиент_65-4" x1="146.55" y1="135.06" x2="175.38" y2="152.07" xlink:href="#Безымянный_градиент_65"/><linearGradient id="Безымянный_градиент_65-5" x1="220.5" y1="92.82" x2="249.33" y2="109.84" xlink:href="#Безымянный_градиент_65"/><linearGradient id="Безымянный_градиент_65-6" x1="232.61" y1="184.97" x2="261.43" y2="201.99" xlink:href="#Безымянный_градиент_65"/><linearGradient id="Безымянный_градиент_50-6" x1="140.99" y1="109.44" x2="145.99" y2="109.43" xlink:href="#Безымянный_градиент_50"/><linearGradient id="Безымянный_градиент_33-6" x1="140.99" y1="84.22" x2="145.99" y2="84.22" xlink:href="#Безымянный_градиент_33"/><linearGradient id="Безымянный_градиент_50-7" x1="227.22" y1="159.53" x2="232.22" y2="159.51" xlink:href="#Безымянный_градиент_50"/><linearGradient id="Безымянный_градиент_33-7" x1="227.22" y1="134.3" x2="232.22" y2="134.3" xlink:href="#Безымянный_градиент_33"/><linearGradient id="Безымянный_градиент_50-8" x1="214.93" y1="67.22" x2="219.93" y2="67.21" xlink:href="#Безымянный_градиент_50"/><linearGradient id="Безымянный_градиент_33-8" x1="214.93" y1="41.99" x2="219.93" y2="41.99" xlink:href="#Безымянный_градиент_33"/><linearGradient id="Безымянный_градиент_50-9" x1="311.67" y1="207.43" x2="316.67" y2="207.42" xlink:href="#Безымянный_градиент_50"/><linearGradient id="Безымянный_градиент_33-9" x1="311.67" y1="182.21" x2="316.67" y2="182.21" xlink:href="#Безымянный_градиент_33"/><linearGradient id="Безымянный_градиент_65-7" x1="291.2" y1="52.09" x2="320.03" y2="69.11" xlink:href="#Безымянный_градиент_65"/><linearGradient id="Безымянный_градиент_65-8" x1="377.25" y1="102" x2="406.08" y2="119.02" xlink:href="#Безымянный_градиент_65"/><linearGradient id="Безымянный_градиент_50-10" x1="285.64" y1="26.48" x2="290.64" y2="26.46" xlink:href="#Безымянный_градиент_50"/><linearGradient id="Безымянный_градиент_33-10" x1="285.64" y1="1.25" x2="290.64" y2="1.25" xlink:href="#Безымянный_градиент_33"/><linearGradient id="Безымянный_градиент_50-11" x1="371.87" y1="76.56" x2="376.87" y2="76.55" xlink:href="#Безымянный_градиент_50"/><linearGradient id="Безымянный_градиент_33-11" x1="371.87" y1="51.33" x2="376.87" y2="51.33" xlink:href="#Безымянный_градиент_33"/><linearGradient id="Безымянный_градиент_50-12" x1="456.32" y1="124.47" x2="461.32" y2="124.45" xlink:href="#Безымянный_градиент_50"/><linearGradient id="Безымянный_градиент_33-12" x1="456.32" y1="99.24" x2="461.32" y2="99.24" xlink:href="#Безымянный_градиент_33"/><linearGradient id="Безымянный_градиент_50-13" x1="385.61" y1="167" x2="390.61" y2="166.99" xlink:href="#Безымянный_градиент_50"/><linearGradient id="Безымянный_градиент_33-13" x1="385.61" y1="141.77" x2="390.61" y2="141.77" xlink:href="#Безымянный_градиент_33"/><linearGradient id="Безымянный_градиент_103" x1="416.48" y1="485.44" x2="448.91" y2="517.27" gradientUnits="userSpaceOnUse"><stop offset="0" stop-color="#515151" stop-opacity="0"/><stop offset=".16" stop-color="#515151" stop-opacity=".11"/><stop offset=".43" stop-color="#515151" stop-opacity=".42"/><stop offset=".49" stop-color="#515151" stop-opacity=".5"/></linearGradient><style>.cls-2{fill:#7ab851}.cls-3{fill:#f0e0c4}.cls-4{fill:#e1d1b5}.cls-11,.cls-41,.cls-5{fill:#605c53}.cls-22,.cls-8{fill:#e6efef}.cls-9{fill:#7c7c7c}.cls-10{fill:#acadad}.cls-11,.cls-30{opacity:.5}.cls-12{fill:#4d6683}.cls-13{opacity:.9}.cls-22,.cls-41,.cls-61{opacity:.25}.cls-23{fill:#262522}.cls-24{fill:#514f4c}.cls-25{fill:#5d7842}.cls-26{fill:#609136}.cls-30,.cls-61{fill:#3a3a3a}.cls-34{fill:#cad1d1}.cls-64{fill:#3f3f3f}.cls-68{fill:#eaea1f}</style></defs><g id="Layer_2" data-name="Layer 2"><g id="Illustration"><path fill="#535d6b" d="M0 562.76l358.1 206.75 395.97-228.76L395.5 334.24 0 562.76z"/><path class="cls-2" d="M16.82 491.45l342.13 197.52 369.55-213.5-45.68-25.61-.02-10.53-288.13-166.21L16.82 491.45z"/><path class="cls-3" d="M133.82 132.91L246.29 68s6.32-3.76 24.26-14a97.94 97.94 0 0127-10.66c27.54-6.23 42.72 1 42.72 1L529.82 153.7l-20.48-6.3-22.44 2-13.1 2.77a96.14 96.14 0 00-22.8 7.89l-25.56 12.61-42.44 24.5-69.24 39.67z"/><path class="cls-4" d="M133.82 496.64l180 103.93-.11-363.73-179.89-103.93v363.73z"/><path class="cls-5" d="M569.46 453.62l-74.56 42.59-64-87.91-27.08 15.53.24 124.63-90.25 52.1-.11-363.72L434 167.78s81.43-48.08 106.37-1.59a80 80 0 014.54 10l-15 8.85v31.11l9.14-5.43 8.86 5.22c0 .29.27 9.63.22 16.51-.22 29.35-11.77 54.75-26.71 78.6l-21.07 33.62z"/><path d="M386 361.42v-103.6l45.24-26.27c16.27-9.52 30.11 3.55 34.74 8.95 7.37 9.24 7.27 26.54 4.88 38-2.86 13.75-15.35 43-35.24 54.27-10.94 6.52-49.62 28.65-49.62 28.65z" fill="url(#Безымянный_градиент_102)"/><path fill="url(#Безымянный_градиент_71)" d="M494.91 496.21l-91.03-51.63-.04-20.75 27.08-15.53 63.99 87.91z"/><path class="cls-8" d="M295.23 247.76l-35.24-21.29-.22 104 36.11 20.75-.65-103.46z"/><path class="cls-9" d="M250.69 221.28l9.3 5.19-.22 104-8.87 5.18-.21-114.37z"/><path class="cls-10" d="M296.04 361.42l-.16-10.2-36.11-20.75-8.87 5.18 45.14 25.77z"/><path class="cls-8" d="M232.5 211.22l-35.25-21.29-.21 104 36.11 20.75-.65-103.46z"/><path class="cls-9" d="M187.96 184.74l9.29 5.19-.21 104-8.87 5.18-.21-114.37z"/><path class="cls-10" d="M233.31 324.88l-.16-10.2-36.11-20.75-8.87 5.18 45.14 25.77z"/><path class="cls-11" d="M188.17 299.11l17.63.14-8.76-5.32-8.87 5.18zM251.02 335.58l17.62.14-8.75-5.33-8.87 5.19z"/><path class="cls-8" d="M331.99 247.44l35.87-20.97.14 104-36.01 20.75V247.44z"/><path class="cls-9" d="M376.88 221.28l.11 114.37-8.99-5.18-.14-104 9.02-5.19z"/><path class="cls-10" d="M331.99 351.22v10.42l45-25.99-8.99-5.18-36.01 20.75z"/><path class="cls-12" d="M170.13 309.4l-54.31 31.36-71.87-41.65 89.75-51.95.1 31.13-.06 10.55 36.39 20.56z"/><g class="cls-13"><path class="cls-3" d="M142.98 304.48l8.87 5.33-9.03 4.87-9.1-5.16 9.26-5.04zM124.89 304.3l8.87 5.33-9.03 4.87-9.11-5.16 9.27-5.04zM124.89 314.68l8.87 5.34-9.03 4.87-9.11-5.16 9.27-5.05zM98.1 309.4l8.87 5.34-9.02 4.87-9.11-5.17 9.26-5.04zM107.17 293.9l8.87 5.34-9.03 4.87-9.1-5.16 9.26-5.05z"/><path class="cls-3" d="M116.02 288.86l8.87 5.33-9.03 4.87-9.11-5.16 9.27-5.04zM115.82 268.02l8.87 5.33-9.02 4.87-9.11-5.16 9.26-5.04zM116.02 278.44l8.87 5.33-9.03 4.87-9.11-5.16 9.27-5.04zM124.89 252.3l8.87 5.34-9.03 4.87-9.11-5.16 9.27-5.05z"/></g><path class="cls-9" d="M143.01 158.79l8.84 5.49-.11 124.56-9.03 5.09.3-135.14z"/><path class="cls-8" d="M170.13 174.66l-18.28-10.38-.11 124.56 18.39 10.17V174.66z"/><path class="cls-10" d="M170.13 309.4v-10.39l-18.39-10.17-9.03 5.09 27.42 15.47z"/><path class="cls-11" d="M143.04 294.03l17.62.14-8.76-5.33-8.86 5.19z"/><path class="cls-4" d="M43.95 299.11l-.13 10.29 72 41.75v-10.39l-71.87-41.65z"/><path class="cls-5" d="M170.13 309.4v10.39l-54.31 31.36v-10.39l54.31-31.36z"/><path fill="url(#Безымянный_градиент_65)" opacity=".25" d="M95.7 271.47l30.93 17.83 2.59-2.23-30.78-17.42-2.74 1.82z"/><path fill="url(#Безымянный_градиент_65-2)" opacity=".25" d="M46.31 300.21l30.92 17.83 2.59-2.23-30.77-17.42-2.74 1.82z"/><path d="M165.14 260.61v49.2c0 .69 1.11 1.25 2.5 1.25s2.5-.56 2.5-1.25v-49.2z" fill="url(#Безымянный_градиент_50)"/><ellipse cx="167.64" cy="260.61" rx="2.5" ry="1.25" fill="url(#Безымянный_градиент_33)"/><path d="M46.11 250.4v49.19c0 .69 1.12 1.25 2.5 1.25s2.5-.56 2.5-1.25V250.4z" fill="url(#Безымянный_градиент_50-2)"/><ellipse cx="48.61" cy="250.4" rx="2.5" ry="1.25" fill="url(#Безымянный_градиент_33-2)"/><path d="M95.41 221.7v49.19c0 .69 1.11 1.25 2.5 1.25s2.5-.56 2.5-1.25V221.7z" fill="url(#Безымянный_градиент_50-3)"/><ellipse cx="97.91" cy="221.7" rx="2.5" ry="1.25" fill="url(#Безымянный_градиент_33-3)"/><path class="cls-22" d="M118.65 292.03l47.22-28.58-.71 44.8-46.54 27.4.03-43.62zM50.26 253.91l63.39 38.37v43.94l-63.39-37.21v-45.1z"/><path class="cls-22" d="M96.33 224.41l-.32 42.94-44.76 25.73-.13-39.67 45.21-29zM100.41 222.43l33.31-19.05v42l-33.31 19.33v-42.28z"/><path class="cls-22" d="M79.34 236.01l11.43 35.05-2.31 1.33-13.49-33.58 4.37-2.8z"/><path class="cls-22" d="M96.33 225.11l-.32 42.94-44.76 25.74-.13-39.68 45.21-29z"/><g id="зелень"><path class="cls-4" d="M59.65 298.03v-20.82l17.89 10.33.11 20.66-18-10.17z"/><path class="cls-5" d="M95.65 277.21l-18.11 10.33.11 20.66 17.87-10.28.13-20.71z"/><path class="cls-3" d="M77.65 266.35l18 10.86-18.11 10.33-17.89-10.33 18-10.86z"/><path class="cls-23" d="M63.92 277.21l13.73 7.99 13.59-7.88-13.32-7.67-14 7.56z"/><path class="cls-24" d="M66.49 278.7l9.96-4.97 4.84.89 7.42 4.17 2.53-1.47-4.93-2.87-8.18-3.5-10.63 4.33-3.58 1.93 2.57 1.49z"/><path class="cls-25" d="M85.66 212.09l11.12 7.16 4.39 11.54-.1 11.14.89 11.98-8.83 11.45-4.45 9.07-10.06 8.03 1.41-16.11-4.65-13.64L78.19 239l5.3-8.55 1.62-12.64.55-5.72z"/><path class="cls-26" d="M81.43 202.89l-14.09 21.52-2.66 15.67 2.81 8.65 5.73 18.05-4.57 10.08 5.32 2.57 4.65 3.03 6.06-6.38 3.09-18.05-7.85-4.62 5.25-10.73 4.37-9.13.87-10.33-.78-11.9-8.2-8.43-11.04 6.43 11.04-6.43z"/><path class="cls-2" d="M68.65 276.86l-9.76-13.35-6.8-13.11-1.44-14.75 7.61-16.64 11.34-9.9 11.83-6.22-13.66 24.33-1.9 15.76 4.59 7.2 2 9.24 1.7 9.03-5.51 8.41z"/><path d="M150.89 320.51l-2.21-5.51-12.68-4.22s-10.49-3.67-10.81-3.24-7.25 2.7-8.54 2.59c-.91-.07-5 .33-7.29.58l4.26-2.5-18.1-10.29-17.87 10.29 18 10.57L98 317.4l-1.7 12.08 19.52 11.28z" opacity=".85" fill="url(#Безымянный_градиент_79)"/></g><path d="M113.65 289.8V339c0 .69 1.12 1.25 2.5 1.25s2.5-.56 2.5-1.25v-49.2z" fill="url(#Безымянный_градиент_50-4)"/><ellipse cx="116.15" cy="289.8" rx="2.5" ry="1.25" fill="url(#Безымянный_градиент_33-4)"/><path class="cls-22" d="M50.26 253.91l63.39 38.37v43.94l-63.39-37.21v-45.1zM118.65 292.73l47.22-28.58-.71 44.8-46.54 27.41.03-43.63zM100.41 223.13l33.31-19.04v42l-33.31 19.32v-42.28z"/><path class="cls-22" d="M50.26 254.61l63.39 38.37v43.95l-63.39-37.22v-45.1z"/><path class="cls-22" d="M60.28 305.6l30.19-26.65 6.62 4.01-32.55 25.14-4.26-2.5zM102.71 286.36l-32.62 24.99 21.63 12.71 20.87-31.72-9.88-5.98zM127.1 287.62l-3.8 45.98 3.79-2.23 12.95-51.58-12.94 7.83zM142.71 277.52l4.11-2.49-6.78 48.84-4.3 2.53 6.97-48.88z"/><path class="cls-12" d="M151.85 132.9l135.38-78.11 161.6 93.71-134.86 77.86-162.12-93.46z"/><g class="cls-13"><path class="cls-3" d="M187.59 143.17l9.39 5.24 8.95-5.15-9.11-5.37-9.23 5.28zM214.67 148.59l9.38 5.24 8.95-5.15-9.1-5.38-9.23 5.29zM224.14 121.84l9.39 5.24 8.94-5.15-9.1-5.37-9.23 5.28zM241.95 174.2l9.38 5.24 8.95-5.15-9.1-5.38-9.23 5.29z"/><path class="cls-3" d="M196.76 148.2l9.38 5.24 8.95-5.16-9.1-5.37-9.23 5.29zM358.7 127.82l9.38 5.24 8.95-5.15-9.1-5.38-9.23 5.29z"/><path class="cls-3" d="M358.83 137.95l9.38 5.24 8.95-5.15-9.1-5.37-9.23 5.28zM368 163.7l9.38 5.24 8.95-5.16-9.1-5.37-9.23 5.29zM349.78 174.44l9.39 5.24 8.95-5.15-9.11-5.37-9.23 5.28zM251.85 96.41l9.39 5.23 8.95-5.15-9.11-5.37-9.23 5.29zM250.6 117.39l9.39 5.24 8.95-5.15-9.11-5.37-9.23 5.28zM295.5 194.99l9.38 5.23 8.95-5.15-9.1-5.37-9.23 5.29zM304.81 158.44l9.39 5.23 8.95-5.15-9.11-5.37-9.23 5.29zM313.98 216.16l9.38 5.24 8.95-5.15-9.1-5.37-9.23 5.28zM358.7 189.72l9.38 5.24 8.95-5.15-9.1-5.37-9.23 5.28zM241.52 164.22l9.38 5.24 8.95-5.16-9.1-5.37-9.23 5.29z"/></g><path class="cls-4" d="M151.85 132.9l8.97 5.17L286.9 65.28l.33-10.49-135.38 78.11zM439.88 153.6l8.95-5.1-161.6-93.71-.33 10.49 152.98 88.32z"/><path class="cls-30" d="M151.85 132.9l17.97 10.36 126-72.83-8.92-15.64-135.05 78.11z"/><path class="cls-4" d="M295.99 80.74l53.83 31.13-35.83 21.16-54.17-31.4 36.17-20.89z"/><path class="cls-5" d="M295.99 80.74v41.85l-36.17-20.96 36.17-20.89z"/><path class="cls-3" d="M295.99 122.59l9.18-5.15 8.81 5.09-9.01 5.27-8.98-5.21z"/><path class="cls-3" d="M322.79 117.37l8.64 5.28-17.51 10.4-9.06-5.25 17.93-10.43z"/><path class="cls-11" d="M295.99 80.74l22.4 39.19-13.42 7.87-45.15-26.17 36.17-20.89z"/><path class="cls-5" d="M286.82 460.11l.1 10.42-27.1 15.62v-10.39l27-15.65z"/><path class="cls-4" d="M205.9 444.49l53.73 31.27v10.39l-53.73-30.96v-10.7z"/><path class="cls-3" d="M205.9 444.49l27.41-15.68 53.51 31.3-27.19 15.65-53.73-31.27z"/><path class="cls-8" d="M286.8 470.42l-.29 93.61-35.67-20.75-.14-62.32 8.81 5.08 27.29-15.62z"/><path class="cls-9" d="M232.74 470.59l18.29 10.54-.19 62.15-17.87 10.54-.23-83.23z"/><path class="cls-10" d="M232.77 553.77l53.61 30.95.25-20.57-36-20.93-17.86 10.55z"/><path d="M284.57 503.89h0c-2.3-.75-4.6.11-4.6 2.47v24.13a3 3 0 001.48 2.56l3.12 1.8" fill="none" stroke="#3a3a3a" stroke-miterlimit="10" stroke-width="2"/><path class="cls-30" d="M286.82 460.11l18.03 31.33.13 31.09-90.16-52-8.92-15.34 53.73 30.96v-10.39l27.19-15.65z"/><path opacity=".5" fill="#e6efef" d="M151.85 371.86V455l53.87 30.77v-82.81l-53.87-31.1z"/><path class="cls-9" d="M142.98 366.65l8.87 5.21V455l-8.87 5.36v-93.71z"/><path class="cls-10" d="M205.72 485.77l.85 10.44-63.59-35.85 8.87-5.36 53.87 30.77z"/><path class="cls-11" d="M143.04 460.38l17.62.13-8.76-5.32-8.86 5.19zM232.77 553.77h36.1l-17.99-10.55-18.11 10.55z"/><path opacity=".75" fill="#e6efef" d="M160.94 377.2v72.61l44.78-25.86v-20.99l-44.78-25.76z"/><path class="cls-8" d="M260.19 362.11v20.78l35.83 20.87-.5-21.56-35.33-20.09z"/><path class="cls-9" d="M250.82 356.88l9.37 5.23v20.78l-9.37 5.16v-31.17z"/><path class="cls-10" d="M296.02 403.76l.11 10.45-45.31-26.16 9.37-5.16 35.83 20.87z"/><path class="cls-8" d="M260.19 403.78v20.79l35.83 20.87-.5-21.57-35.33-20.09z"/><path class="cls-9" d="M250.82 398.55l9.37 5.23v20.79l-9.37 5.16v-31.18z"/><path class="cls-10" d="M296.02 445.44l.11 10.45-45.31-26.16 9.37-5.16 35.83 20.87z"/><path class="cls-11" d="M251.38 387.45l17.62.14-8.76-5.33-8.86 5.19zM250.92 429.51l18.08.38-8.76-5.32-9.32 4.94z"/><path class="cls-8" d="M430.9 356.2l26.92-15.57.11 31.35-27.03 15.59V356.2z"/><path class="cls-9" d="M466.99 335.65l-9.17 4.98.11 31.35 9.06 5.06v-41.39z"/><path class="cls-10" d="M430.9 387.57v10.3l36.09-20.83-9.06-5.06-27.03 15.59z"/><path class="cls-8" d="M484.8 210.95v31.06l45.02-25.87v-31.11l-45.02 25.92z"/><path class="cls-10" d="M484.8 242.01v10.4l63.02-36.48-8.86-5.22-54.16 31.3z"/><path class="cls-10" d="M529.82 205.43l9.14 5.28-9.14 5.43v-10.71z"/><path class="cls-11" d="M170.13 309.81l35.59 72.46v10.39l-44.78 25.97-27.12-15.67-.1-61.79-17.9 9.98v-10.39l54.31-30.95z"/><path class="cls-34" d="M313.79 174.29l18.05-10.37 18.03 10.32-18.05 10.4-18.03-10.35z"/><path class="cls-5" d="M331.97 205.49l-.13-20.86 18.03-10.39v20.78l-17.9 10.47z"/><path class="cls-9" d="M313.79 174.29l.03 20.79 18.15 10.41-.13-20.86-18.05-10.34z"/><path class="cls-34" d="M259.95 174.23L278 163.86l18.03 10.32-18.05 10.41-18.03-10.36z"/><path class="cls-5" d="M278.14 205.43l-.14-20.86 18.03-10.39v20.78l-17.89 10.47z"/><path class="cls-9" d="M259.95 174.23l.03 20.79 18.16 10.41-.14-20.86-18.05-10.34z"/><path class="cls-34" d="M313.93 133l18.06-10.38 18.02 10.32-18.05 10.41L313.93 133z"/><path class="cls-5" d="M332.12 164.19l-.13-20.86 18.02-10.39v20.78l-17.89 10.47z"/><path class="cls-9" d="M313.93 133l.03 20.78 18.16 10.41-.13-20.86L313.93 133z"/><path class="cls-34" d="M259.96 133l18.06-10.38 18.03 10.32-18.06 10.41L259.96 133z"/><path class="cls-5" d="M278.15 164.19l-.13-20.86 18.03-10.39v20.78l-17.9 10.47z"/><path fill="#9b9b9b" d="M292.1 171.86v-.97l12.47 7.2-.01 1.1-12.46-7.33z"/><path class="cls-5" d="M317.12 170.89l-.01 1.09-12.55 7.21.01-1.1 12.55-7.2z"/><path class="cls-10" d="M292.1 170.89l12.47 7.2 12.5-7.18-12.51-7.23-12.46 7.21z"/><path fill="url(#Безымянный_градиент_65-3)" opacity=".25" d="M303.35 171.19l14.41 9.56 2.56-1.56-14.81-8.86-2.16.86z"/><path d="M303.12 139.25v31.52c0 .44.69.8 1.55.8s1.55-.36 1.55-.8v-31.52z" fill="url(#Безымянный_градиент_50-5)"/><ellipse cx="304.67" cy="139.25" rx="1.55" ry=".8" fill="url(#Безымянный_градиент_33-5)"/><path d="M304.67 148.6c-11.36 0-20.6-5.55-21.13-12.52 0 .21-.06.41-.06.63 0 7.25 9.49 13.14 21.19 13.14s21.18-5.89 21.18-13.14c0-.22 0-.42-.05-.63-.53 6.97-9.8 12.52-21.13 12.52z" fill="url(#Безымянный_градиент_78)"/><ellipse cx="304.67" cy="136.08" rx="21.13" ry="12.52" fill="#eaeaea"/><path class="cls-9" d="M259.96 133l.03 20.78 18.16 10.41-.13-20.86L259.96 133z"/><g id="крыша_стекло" data-name="крыша стекло"><path class="cls-41" d="M312.28 232.21l4.81 2.7 3.19-1.84-4.44-2.28-3.56 1.42z"/><path fill="url(#Безымянный_градиент_65-4)" opacity=".25" d="M141.41 134.12l30.93 17.82 2.59-2.23-30.78-17.42-2.74 1.83z"/><path fill="url(#Безымянный_градиент_65-5)" opacity=".25" d="M215.36 91.89l30.92 17.82 2.59-2.23-30.78-17.42-2.73 1.83z"/><path fill="url(#Безымянный_градиент_65-6)" opacity=".25" d="M227.46 184.03l30.93 17.83 2.59-2.23-30.78-17.42-2.74 1.82z"/><path d="M141 84.22v49.19c0 .69 1.12 1.25 2.5 1.25s2.5-.56 2.5-1.25V84.22z" fill="url(#Безымянный_градиент_50-6)"/><ellipse cx="143.49" cy="84.22" rx="2.5" ry="1.25" fill="url(#Безымянный_градиент_33-6)"/><path d="M227.22 134.3v49.2c0 .69 1.12 1.25 2.5 1.25s2.5-.56 2.5-1.25v-49.2z" fill="url(#Безымянный_градиент_50-7)"/><ellipse cx="229.72" cy="134.3" rx="2.5" ry="1.25" fill="url(#Безымянный_градиент_33-7)"/><path d="M214.93 42v49.2c0 .69 1.12 1.25 2.5 1.25s2.5-.56 2.5-1.25V42z" fill="url(#Безымянный_градиент_50-8)"/><ellipse cx="217.43" cy="41.99" rx="2.5" ry="1.25" fill="url(#Безымянный_градиент_33-8)"/><path d="M311.67 182.21v49.19c0 .69 1.12 1.25 2.5 1.25s2.5-.56 2.5-1.25v-49.19z" fill="url(#Безымянный_градиент_50-9)"/><ellipse cx="314.17" cy="182.21" rx="2.5" ry="1.25" fill="url(#Безымянный_градиент_33-9)"/><path class="cls-22" d="M144.58 86.84l82.64 49.43v44.3l-82.32-48.48-.32-45.25zM231.09 138.22l80.58 47.06v44.3l-80.26-46.12-.32-45.24z"/><path class="cls-41" d="M456.93 149.25l8 4.35 3.63-1.28-8.07-4.5-3.56 1.43z"/><path fill="url(#Безымянный_градиент_65-7)" opacity=".25" d="M286.06 51.15l30.93 17.82 2.58-2.23-30.77-17.41-2.74 1.82z"/><path fill="url(#Безымянный_градиент_65-8)" opacity=".25" d="M372.11 101.06l30.93 17.83 2.59-2.23-30.78-17.42-2.74 1.82z"/><path d="M285.64 1.25v49.2c0 .69 1.12 1.25 2.5 1.25s2.5-.56 2.5-1.25V1.25z" fill="url(#Безымянный_градиент_50-10)"/><ellipse cx="288.14" cy="1.25" rx="2.5" ry="1.25" fill="url(#Безымянный_градиент_33-10)"/><path d="M371.87 51.33v49.2c0 .69 1.12 1.25 2.5 1.25s2.5-.56 2.5-1.25v-49.2z" fill="url(#Безымянный_градиент_50-11)"/><ellipse cx="374.37" cy="51.33" rx="2.5" ry="1.25" fill="url(#Безымянный_градиент_33-11)"/><path d="M456.32 99.24v49.2c0 .69 1.12 1.25 2.5 1.25s2.5-.56 2.5-1.25v-49.2z" fill="url(#Безымянный_градиент_50-12)"/><ellipse cx="458.82" cy="99.24" rx="2.5" ry="1.25" fill="url(#Безымянный_градиент_33-12)"/><path class="cls-22" d="M289.23 4.4l82.64 48.9v44.31l-82.32-48.49-.32-44.72zM375.74 55.25l80.58 47.06v44.31l-80.26-46.13-.32-45.24z"/><path class="cls-22" d="M375.74 54.04l80.58 47.07v44.3l-80.26-46.12-.32-45.25zM145.99 86.05l69.94-39.37v42.61l-69.94 41.72V86.05zM219.93 44.01l66.7-39.17v44.49l-66.7 38.27V44.01z"/><path class="cls-22" d="M376.01 92.47l20.43-26.34 7.85 4.7-15.73 35.64-12.5-5.98-.05-8.02zM411.96 119.92l25.05-30.09L422 81.06l-10.04 38.86z"/><g id="зелень-2" data-name="зелень"><path class="cls-4" d="M383.51 153.5v-20.82l17.89 10.33.11 20.66-18-10.17z"/><path class="cls-5" d="M419.51 132.68l-18.11 10.33.11 20.66 17.87-10.28.13-20.71z"/><path class="cls-3" d="M401.51 121.82l18 10.86-18.11 10.33-17.89-10.33 18-10.86z"/><path class="cls-23" d="M387.78 132.68l13.73 7.99 13.59-7.88-13.32-7.67-14 7.56z"/><path class="cls-24" d="M390.35 134.17l9.96-4.97 4.84.89 7.42 4.17 2.53-1.47-4.93-2.88-8.18-3.49-10.63 4.33-3.58 1.93 2.57 1.49z"/><path class="cls-25" d="M409.52 67.56l11.12 7.16 4.4 12.18-.55 10.71-5.75 11.45 1.58 10.86-3.07 8.74-14.77 9.27 1.41-16.11-4.65-13.64 2.81-13.71 5.3-8.55 1.62-12.64.55-5.72z"/><path class="cls-26" d="M403.82 58.17l-8.8 26.35-6.48 11.03 2.81 8.65 5.73 18.05-4.57 10.07 5.32 2.58 4.65 3.03 6.06-6.38.75-11.86-5.51-10.81.32-12.68 9.3-7.18.87-10.33.83-6.55-2.96-7.17-6.51-8.04-1.81 1.24z"/><path class="cls-2" d="M392.51 132.32l-13.12-7.2-5.02-16.77 1.64-21.13 8.73-11.27 8.72-11.37 10.36-6.41-7.75 25.69-6.34 14.59 4.59 7.2 2 9.24 1.7 9.03-5.51 8.4z"/><path class="cls-61" d="M439.13 164.78l-19.75-11.39-17.87 10.28 19.62 11.69 18-10.58z"/></g><path class="cls-61" d="M386.04 191.67l3.07 1.86 2.95-1.68-3.29-2.01-2.73 1.83z"/><path d="M385.61 141.77V191c0 .69 1.12 1.25 2.5 1.25s2.5-.56 2.5-1.25v-49.2z" fill="url(#Безымянный_градиент_50-13)"/><ellipse cx="388.11" cy="141.77" rx="2.5" ry="1.25" fill="url(#Безымянный_градиент_33-13)"/><path class="cls-22" d="M316.67 185.83l69.94-39.37v42.61l-69.94 41.72v-44.96zM390.61 143.79l66.7-39.16v44.48l-66.7 38.27v-43.59zM144.58 85.64l82.64 49.43v44.3l-82.32-48.49-.32-45.24zM231.09 137.01l80.58 47.06v44.31l-80.26-46.13-.32-45.24zM289.23 3.19l82.64 48.91v44.3l-82.32-48.49-.32-44.72z"/><path class="cls-22" d="M145.99 84.84l69.94-39.36v42.6l-69.94 41.72V84.84zM219.93 42.8l66.7-39.16v44.48l-66.7 38.28V42.8zM316.67 184.62l69.94-39.36v42.61l-69.94 41.71v-44.96zM390.61 142.58l66.7-39.16v44.48l-66.7 38.28v-43.6zM160.26 141.14l24.12-31.7 20.95 12.53-21.41 31.9-23.66-12.73zM246.33 192.03l19.98-33.24 9.4 5.49-15.72 34.4-13.66-6.65zM279.66 167l-17.03 33.2 5.55 3.18L280.37 167h-.71z"/><path class="cls-22" d="M330.55 178.02l12.17 37.23 19.32-11.16-19.1-34.25-12.39 8.18zM374.37 153.6l11.24 28.61v-8.34l-7.68-22.49-3.56 2.22zM400.35 138.07l15.68 33.52 9.41-4.59-25.09-28.93zM418.74 126.07l22.48 31.07 7.58-4-22.48-31.52-7.58 4.45zM168.32 72.27l20.6 31.93 21.73-11.76-7.89-39.55-34.44 19.38zM230.12 36.82l16.94 34.01 8.53-4.89-21.87-31.24-3.6 2.12zM241.45 30.17l27.67 28 11-6.31-16.78-34.54-21.89 12.85zM315.24 18.59l-19.88 32.74 13.27 7.82 17.9-32.68-11.29-7.88zM371.87 64.52L355.4 87.91l11.16 6.57 5.31-13.18V64.52z"/></g><path class="cls-61" d="M278.14 205.43l17.68 10.47 18.16-10.41-17.95-10.53-17.89 10.47zM332.09 164.28l17.69 10.46 18.16-10.4-17.95-10.53-17.9 10.47zM331.97 205.49l8.82 5.51 18.16-10.41-9.08-5.35-17.9 10.25zM278.14 164.19l17.68 10.47 18.16-10.41-17.95-10.52-17.89 10.46z"/><path class="cls-10" d="M16.87 512.21l-.05-20.76 342.13 197.52v20.79L16.87 512.21z"/><path class="cls-9" d="M737.24 480.37v10.83L358.95 709.76v-20.79l369.3-213.35 8.99 4.75z"/><path class="cls-64" d="M304.56 667.82l378.26-217.96 54.42 30.51-378.29 218.55-54.39-31.1z"/><path fill="#bababa" d="M305.04 657.55l-.48 10.27 378.26-217.96-.02-10.53-377.76 218.22z"/><path fill="#d3d3d3" d="M295.99 652.84v9.99l8.57 4.99.48-10.27-9.05-4.71z"/><path class="cls-8" d="M674.16 434.09l8.64 5.24-377.76 218.22-9.05-4.71 378.17-218.75zM349.93 683.44l9.02 5.53 17.9-10.5-9.19-5.3-17.73 10.27zM395.23 657.49l9.02 5.54 17.9-10.51-9.19-5.3-17.73 10.27zM440.53 631.55l9.01 5.53 17.9-10.51-9.19-5.29-17.72 10.27zM485.82 605.6l9.02 5.53 17.9-10.5-9.19-5.3-17.73 10.27zM531.12 579.65l9.02 5.54 17.9-10.51-9.19-5.3-17.73 10.27zM576.42 553.71l9.01 5.53 17.91-10.5-9.19-5.3-17.73 10.27zM621.72 527.76l9.01 5.54 17.9-10.51-9.18-5.3-17.73 10.27zM667.01 501.82l9.02 5.53 17.9-10.51-9.19-5.29-17.73 10.27z"/><path fill="url(#Безымянный_градиент_103)" d="M403.75 484.94l36.76-19.58 26.25 14.89-62.71 47.52-.3-42.83z"/><path class="cls-34" d="M178.77 585l54-31.18 117.16 67.51L296 652.37zm143.9 41.6l9.07 5.14 9-5.1-9-5.19zm0-10.42l9.07 5.15 9-5.11-9-5.19zm-17.89 10.42l9.07 5.14 9-5.1-9-5.19zm0 10.29l9.07 5.15 9-5.11-9-5.19zm-17.84 0L296 642l9-5.11-9-5.19zm0 10.38l9.07 5.15 9-5.11-9-5.19zm17.54-31.07l9.07 5.15 9-5.11-9-5.19zm0-10.42l9.07 5.15 9-5.11-9-5.19zm-17.89 10.42l9.07 5.15 9-5.11-9-5.19zm0 10.29l9.07 5.15 9-5.11-9-5.18zm-17.84 0l9.07 5.15 9-5.11-9-5.18zm0 10.38l9.07 5.15 9-5.11-9-5.19zm17.53-31.07l9.07 5.15 9-5.11-9-5.19zm0-10.42l9.07 5.15 9-5.11-9-5.19zm-17.89 10.42l9.07 5.15 9-5.11-9-5.19zm0 10.29l9.07 5.15 9-5.11-9-5.18zm-17.84 0l9.07 5.15 9-5.11-9-5.18zm0 10.38l9.07 5.15 9-5.11-9-5.18zm17.54-31.07l9.06 5.15 9-5.11-9-5.19zm.43-10.51l9.07 5.15 9-5.11-9-5.19zm-17.89 10.42l9.07 5.14 9-5.1-9-5.19zm-.43 10.38l9.07 5.15 9-5.11-9-5.18zm-17.4-.09l9.07 5.15 9-5.11-9-5.19zm-.44 10.4l9.07 5.15 9-5.11-9-5.18zm17.84-31l9.07 5.15 9-5.11-9-5.19zm.28-10.62l9.07 5.15 9-5.11-9-5.19zm-17.89 10.41l9.07 5.15 9-5.11-9-5.18zm-.28 10.51l9.07 5.15 9-5.11-9-5.19zm-17.55-.21l9.07 5.15 9-5.11-9-5.19zm-.29 10.59l9.07 5.15 9-5.11-9-5.19zm17.89-31.08l9.07 5.15 9-5.11-9-5.19zm.19-10.58l9.07 5.15 9-5.11-9-5.19zm-17.89 10.42l9.07 5.15 9-5.11-9-5.19zm-.19 10.46l9.07 5.15 9-5.11-9-5.19zm-17.65-.17l9.07 5.15 9-5.11-9-5.18zm17.68-20.48l9.07 5.14 9-5.1-9-5.19zm-17.89 10.41l9.07 5.15 9-5.11-9-5.19zM178.77 585l9.07 5.15 9-5.11-9-5.19zm17.86 10.32l9.07 5.15 9-5.11-9-5.19z"/><path class="cls-26" d="M170.22 569.16l9.02 5.18 8.38-4.84-8.48-5.49-8.92 5.15zM142.82 532.96l9.03 5.27 8.81-5.12-9.03-5.4-8.81 5.25zM575.04 470.58l9.03 5.27 8.81-5.12-9.04-5.4-8.8 5.25zM583.96 454.99l9.03 5.26 8.81-5.12-9.04-5.4-8.8 5.26zM413.07 470.58l9.02 5.27 8.81-5.12-9.03-5.4-8.8 5.25zM404.15 496.56l9.02 5.27 8.82-5.12-9.04-5.4-8.8 5.25zM440.02 486.15l9.03 5.26 8.81-5.12-9.03-5.4-8.81 5.26zM440.02 507.08l9.03 5.27 8.81-5.12-9.03-5.4-8.81 5.25zM484.77 511.91l9.03 5.26 8.81-5.12-9.04-5.4-8.8 5.26zM448.9 533.29l9.03 5.27 8.81-5.12-9.03-5.4-8.81 5.25zM421.99 527.77l9.02 5.26 8.81-5.11-9.03-5.41-8.8 5.26zM530.2 507.08l9.03 5.27 8.81-5.12-9.04-5.4-8.8 5.25zM530.2 496.56l9.03 5.27 8.81-5.12-9.04-5.4-8.8 5.25zM539.18 471.26l9.02 5.27 8.81-5.12-9.03-5.4-8.8 5.25zM368.11 569.28l9.03 5.26 8.81-5.12-9.03-5.4-8.81 5.26zM385.95 569.44l9.03 5.27 8.81-5.12-9.04-5.41-8.8 5.26zM340.75 605.55l9.03 5.26 8.81-5.11-9.03-5.41-8.81 5.26z"/><path class="cls-26" d="M349.67 600.6l9.03 5.26 8.81-5.12-9.03-5.4-8.81 5.26zM377.03 595.35l9.03 5.26 8.81-5.12-9.03-5.4-8.81 5.26zM403.75 548.49l9.03 5.27 8.81-5.12-9.03-5.4-8.81 5.25z"/><path class="cls-26" d="M412.67 553.82l9.03 5.26 8.81-5.11-9.03-5.41-8.81 5.26zM448.9 553.58l9.03 5.26 8.81-5.12-9.03-5.4-8.81 5.26zM646.63 439.35l9.03 5.26 8.81-5.12-9.03-5.4-8.81 5.26zM619.88 444.61l9.02 5.26 8.82-5.12-9.04-5.4-8.8 5.26zM592.88 408.3l9.02 5.27 8.82-5.12-9.04-5.41-8.8 5.26zM592.88 397.87l9.02 5.26 8.82-5.12-9.04-5.4-8.8 5.26zM548.04 392.61l9.03 5.26 8.81-5.12-9.04-5.4-8.8 5.26zM539.12 377.04l9.03 5.26 8.81-5.12-9.04-5.4-8.8 5.26zM511.8 351.08l9.02 5.27 8.81-5.12-9.03-5.41-8.8 5.26zM521.28 356.34l9.03 5.27 8.81-5.12-9.03-5.41-8.81 5.26zM557.2 428.83l9.03 5.26 8.81-5.12-9.04-5.4-8.8 5.26z"/><path class="cls-26" d="M566.12 423.86l9.03 5.27 8.81-5.12-9.04-5.4-8.8 5.25zM124.9 502l9.03 5.26 8.81-5.11-9.03-5.41-8.81 5.26zM115.98 444.4l9.03 5.27 8.81-5.12-9.03-5.41-8.81 5.26zM107.07 501.67l9.02 5.27 8.81-5.12-9.03-5.41-8.8 5.26zM61.99 506.97l9.22 5.07 8.78-5.07-9-5.14-9 5.14zM98.07 538.22l9.22 5.07 8.78-5.07-9-5.15-9 5.15z"/><path class="cls-68" d="M115.9 506.97l9.22 5.07 8.78-5.07-9-5.14-9 5.14zM160.66 532.92l9.22 5.07 8.78-5.07-9-5.15-9 5.15zM574.96 460.29l9.22 5.07 8.78-5.07-9-5.15-9 5.15zM484.69 522.57l9.22 5.07 8.78-5.07-9-5.14-9 5.14zM431.02 491.58l9.23 5.07 8.77-5.07-9-5.14-9 5.14zM376.87 574.77l9.22 5.07 8.78-5.07-9-5.14-9 5.14zM583.88 403.17l9.22 5.07 8.78-5.07-9-5.15-9 5.15zM520.63 366.56l9.23 5.07 8.77-5.07-9-5.14-9 5.14z"/><path class="cls-26" d="M88.87 470.59l9.28 5.61 8.8-5.61-9.04-5.08-9.04 5.08zM52.99 480.96l8.83 5.29 9.17-5.29-8.73-5.35-9.27 5.35z"/><path class="cls-68" d="M52.99 491.48l8.83 5.29 9.17-5.29-8.73-5.36-9.27 5.36z"/><path class="cls-30" d="M638 442.17l19.35 11.86v10.51l16.04 9.6 7.57-4.43-16.1-9.46-.39-10.17-17.84-10.73-8.63 2.82z"/><path d="M614.21 489.4l-.15-10.4-17.86-10.21-26.74-15.17-29.68-46.74-39.52-62.22c9.51-15.17 17.5-28.42 25.17-40.37 27.54-42.91 22.39-88.36 22.39-88.36l-9.23 5.34-8.77-5.13V185l15-8.85c-21.81-67.69-124.09-.83-124.09-.83l-107.02 61.52.22 363.81 45 25.75v10.08l53.84 31.65 255.3-147.85zM386 257.81l45.24-26.27c16.27-9.51 30.11 3.55 34.73 9 7.38 9.24 7.27 26.54 4.89 38-2.87 13.75-15.35 43-35.24 54.27-11 6.55-49.62 28.68-49.62 28.68zm18 270l-.3-42 .08-61.93 27.08-15.53 31.78 43.95 4.07 28z" fill="#515151" opacity=".5"/><path class="cls-8" d="M647.22 350.76h-10v90a.36.36 0 000 .1c0 1.34 2.23 2.43 5 2.43s5-1.09 5-2.43a.38.38 0 000-.1z"/><path class="cls-25" d="M638.48 388.89s19.33 5.54 24.06 4.16 22.64-7.26 26.11-14.66 13.2-19.74 22.93-24.62 15.31-10.7 13.21-20.41-2.46-20.53-9.79-27.36-.53-16.18-3.47-25.47c-3-9.64-5.14-11.33.08-21.63s8.19-23.9 2.33-34.44-11.56-18.5-17.17-20.13-17.83-7.74-20.84-5.56-14.58 6.83-14.94 15-2.71 17.07 3.56 25.26 10.82 11 10.47 17.82-11.92 16.67-22.09 25.61-17.65 15.87-19.17 22.22-3.3 17.23-.66 22.84 10.36 19.29 10.18 20.69 1.44 5.26.63 11.58-11 25.13-10.81 26.24 5.38 2.86 5.38 2.86z"/><path class="cls-26" d="M615.22 393.62s-29.91-16.93-33.6-37.95-4.57-66.55 1-75.31 15.11-26.83 30.3-37.28 19.5-18.85 15.5-35.23-10.94-14.66-.46-36.76 7.89-25.62 15.77-29c6.59-2.83 27.72-7.91 30.54 6.32s16.2 37.41 19 53.39-16.82 50.95-9.07 56 15 12.8 17.36 24.15 1.45 22.66 0 25.86-11.38 17.19-19.87 21.59 3.59 12.18-.84 24.6-21.71 12.48-21.68 20.87 4.82 10.73-6.9 18.75-37.05 0-37.05 0z"/><path class="cls-2" d="M654.94 364.68s1.09 24.51-30.23 23.13c-56.33-2.47-69.22-27-67.27-57.39s8.73-80.81 33.18-95.75 11.44-62 17.8-69.66 26.91-45.82 44.08-48.12 12.75 1.61 24.63 16-.92 17.54-6.93 38.51 19.39 24.22 4.06 41.06-16.13 33-13.22 45.25-21.33 35.87-15.92 44.05 14.24 18.8 16.43 32.29-6.61 30.63-6.61 30.63z"/><path class="cls-64" d="M638.85 401.84a49.5 49.5 0 005.84 2.43l.89 2.3M637.88 408a6.74 6.74 0 003.54 0l1.05 3.65M639.93 417.82c1.91.53 5.38-1.09 5.38-1.09l1.05 3.65"/><path class="cls-26" d="M581.38 348.13c.39 3.66 7 7.21 7 7.21l-7.38 6.07M606.16 252.41c3.41-1.56 6.43-8.14 6.43-8.14l6 4M626 283.76c3-.94 6.3-6.12 6.3-6.12l4.58 4M621.81 178.61c1.66 3.52 8.46 6.73 8.46 6.73l-4 6.12M637.56 154.41c4.38-1 7.84-9.45 7.84-9.45l8.24 7.83M650.66 205.43c1.91 3.47 10.12 3.44 10.12 3.44L655.7 219M618.39 316c-4.68-.23-11.5 5.91-11.5 5.91l-4.79-8.6M622.43 371.18c4.19 2.07 13 0 13 0l.84 8.73M635.1 347c1.41-3.32.4-10.06.4-10.06l5.4-.93M573.08 297.94c3.7 1.07 10.43-2.17 10.43-2.17l2 7.3"/><path class="cls-64" d="M637.72 428.52c1.9.53 3.72-3.32 3.72-3.32l2.1 2.73M640.88 435.68c1.9.54 4.27-2.68 4.27-2.68l1.05 3.66M639.59 398.77a15.74 15.74 0 005.34-.1L646 400M638 439.74a4 4 0 003.47-.92l.75 3.06"/></g></g></svg>