<svg xmlns="http://www.w3.org/2000/svg" viewBox="0 0 936.84 784.88"><defs><style>.cls-1,.cls-38,.cls-44{fill:#535d6b}.cls-2,.cls-39{fill:#7c7c7c}.cls-4{fill:#b2afae}.cls-5{fill:#5d7842}.cls-6{fill:#e1d1b5}.cls-7{fill:#605c53}.cls-8{fill:#fce6e6}.cls-9{fill:#f0e0c4}.cls-10{fill:#b5afa9}.cls-20{fill:#e6efef}.cls-13{fill:#77736b}.cls-15{fill:#bfad90}.cls-16,.cls-41,.cls-42{fill:#363d44}.cls-17{fill:#4d6683}.cls-19{fill:#7ab851}.cls-20{opacity:.75}.cls-21{fill:#a78957}.cls-22{fill:#7d6542}.cls-23{fill:#609136}.cls-24{fill:none}.cls-28{fill:#777}.cls-29{fill:#8e8e8e}.cls-30{fill:#5b7f7f}.cls-31{fill:#70c4c4}.cls-32{fill:#4a7328}.cls-34{fill:#3e5e20}.cls-38{opacity:.65}.cls-39,.cls-41,.cls-43,.cls-44{opacity:.5}.cls-43{fill:#3a3a3a}.cls-42{opacity:.51}</style></defs><g id="Layer_2" data-name="Layer 2"><g id="Layer_3" data-name="Layer 3"><path class="cls-1" d="M882.54 446.81l45.28 26.17-540.19 311.9L.46 561.33l45.19-26.23"/><path class="cls-2" d="M936.84 395.04v20.42l-549.14 317-.12-20.63 549.26-316.79z"/><path fill="#dfd9cf" d="M0 488.82l557.79-311.64 378.14 218.37-548.39 316.4L0 488.82z"/><path class="cls-4" d="M504.99 436.46l17.96 10.37 18.04-10.37-18-10.39-18 10.39z"/><path class="cls-5" d="M461.43 353.47l-.07 23.85-.19 59.12-9.35-5.4-26.65-15.39-.54-82.8 14.3 8.01 22.5 12.61z"/><path class="cls-5" d="M470.47 431.69l-.3 41.12-9.27 5.36.27-41.73 9.3-4.75z"/><path class="cls-5" d="M461.17 436.45l-.27 41.72-8.73-5.35-.35-41.77 9.35 5.4zM497.17 332.54v83.11l-36 20.79.19-59.12.07-23.85 13.67-8.01 16.89-9.89 5.18-3.03z"/><path class="cls-6" d="M163.33 280.37V405.1l.06-40.65 35.2 20.14-35.26 20.51v41.65l81 47.31-.26.14v30.42l.3.17 2.34 1.36 24.93 14.39 16.71 9.64-.35-82.48 36.28-20.95 36.27 20.63v124.49l1 .56 8.76-5.09.21 10.16 8.85 5.11 8.84-4.94.31-10.45 17.69 10.45.19 19v-196zm.35 20.79l35.65 21L163.39 343zm188 171.37l-27 15.78v.07l27.51-15.52z"/><path class="cls-7" d="M470.44 445.5l-9.29 5.5-9 5.32-45.7 26.9h-.07V618.31l81-46.44V435.56zm-10.16 120.83l-26.87 15.58v-93.45l22.81-13.24 4.06-2.36z"/><path class="cls-8" d="M406.35 618.31l-.02.01v-1.65l.02 1.64zM460.28 566.33l-26.87 15.58v-31.09l26.87 15.51z"/><path class="cls-7" d="M487.33 373.9v20.99l-26.01 15.01-9.99 5.77-12.97 7.53-32.71 18.5v-21.03l19.55-10.9 36.18-20.89 7.85-4.53 18.1-10.45z"/><path class="cls-9" d="M487.33 373.9l-18.1 10.45-7.85 4.53-36.18 20.89-18.87 10.9-243-140.3 108-62.35v10.61l-89.97 51.96 8.97 5.18 215.78 124.71 19.03-10.95 35.19-20.25.06-.04 1.02.59v-1.17l8.27-4.76-8.24-4.73-18.53-10.65-18.11-10.4-126.47-72.66 81.34-46.65 9.03-5.18-54.31-31.42-.17.1-9.12-5.33 9.23-5.33 72 41.57-91.05 52.56 91.05 51.93 18.41 10.49 17.95 10.24 18.78 10.71 25.86 14.75z"/><path class="cls-8" d="M181.36 280.59l89.97-51.96v10.42l-81 46.72-8.97-5.18zM297.88 223.16l29.6-16.51-29.59 17.08-.01-.57zM334.39 202.67l.11.06-6.7 3.74 6.59-3.8zM388.7 223.63l-9.03 5.18-36.22-20.91.04-10.18-9.1-5.32-.17-.09.17-.1 54.31 31.42zM461.41 378.66v1.17l-1.02-.59 1.02-.58z"/><path class="cls-7" d="M406.33 223.22v104.49l-91-51.96 91-52.53z"/><path class="cls-10" d="M253.33 353.32v41.57l-89.94-51.87 35.94-20.88 54 31.18zM234.35 405.43v40.65l-72-40.65 36-20.78 36 20.78z"/><path class="cls-2" d="M244.33 524.8v-62.36l27.7 16-.43 30.26-27.27 16.1z"/><path opacity=".89" fill="#e6efef" d="M253.33 467.64l18.7 10.8-.7 51.55-18-10.39v-51.96z"/><path fill="#acadad" d="M271.33 529.99l.27 10.65-27.27-15.84 9-5.2 18 10.39z"/><path class="cls-10" d="M487.33 435.56l-16.89 9.94-9.29 5.47-9.05 5.32-45.7 26.9-.07-.04-36.59-20.72 36.59-20.63 32.03-18.6 12.97-7.53 9.96 5.5 13.46 7.44 12.58 6.95z"/><path class="cls-13" d="M369.74 420.91l36.37 20.88-36.37 20.64v-41.52z"/><path class="cls-10" d="M280.33 368.91v41.57l63 36.37-.31-41.74-62.69-36.2z"/><path class="cls-13" d="M280.33 410.48l36-20.78-36-20.79v41.57zM460.28 472.86v93.47l-26.87-15.51v-62.36l22.81-13.24 4.06-2.36z"/><path class="cls-8" d="M460.28 566.33l-26.87 15.58v-31.09l26.87 15.51z"/><path class="cls-10" d="M460.28 566.33l-26.87 15.58v-31.09l26.87 15.51z"/><path class="cls-8" d="M352.28 472.86l-27.51 15.52v-.07l26.95-15.78.56.33z"/><path class="cls-10" d="M370.16 482.97v41.44l-9.64-5.64v-41.39l9.64 5.59z"/><path class="cls-8" d="M352.28 472.86l-27.51 15.52v-.07l26.95-15.78.56.33z"/><path fill="#e8d6b8" d="M460.33 379.28l-35.19 20.25-19.03 10.95-215.78-124.71 81-46.72v10.35l27 15.59 44.98-26 .14-31.09 36.22 20.91-81.34 46.65.01 10.31 126.53 73.04 35.46 20.47z"/><path class="cls-8" d="M181.36 280.59l89.97-51.96v10.42l-81 46.72-8.97-5.18zM297.88 223.16l29.6-16.51-29.59 17.08-.01-.57zM334.39 202.67l.11.06-6.7 3.74 6.59-3.8zM388.7 223.63l-9.03 5.18-36.22-20.91.04-10.18-9.1-5.32-.17-.09.17-.1 54.31 31.42z"/><path class="cls-15" d="M388.7 223.63l-9.03 5.18-36.22-20.91.04-10.18-9.1-5.32v-.19l54.31 31.42z"/><path class="cls-7" d="M181.36 280.59l89.97-51.96v10.42l-81 46.72-8.97-5.18z"/><path class="cls-8" d="M327.48 206.65l-29.59 17.08-.01-.57 29.6-16.51zM334.39 192.21v.19l-.17-.09.17-.1z"/><path class="cls-15" d="M469.68 373.9l-8.27 4.76-1.02.58-.06.04-35.46-20.47-126.53-73.04-.01-10.31 126.47 72.66 18.11 10.4 18.53 10.65 8.24 4.73z"/><path class="cls-1" d="M298.33 264.99l-27-15.59v-41.57l8.83 5.1 9.18 5.3 8.54 4.93.01.57.44 41.26z"/><path class="cls-16" d="M343.49 197.72l-.04 10.18-.14 31.09-44.98 26-.45-41.83 45.61-25.44z"/><path class="cls-8" d="M327.48 206.65l-29.6 16.51 29.6-16.51z"/><path class="cls-17" d="M297.88 223.16l-8.54-4.93-9.18-5.3-8.83-5.1 45-25.98 8.77 5.13 9.12 5.33.17.09 9.1 5.32"/><path class="cls-8" d="M461.41 378.66v1.17l-1.02-.59 1.02-.58z"/><path class="cls-6" d="M640.52 254.61v228.63l-44.73-25.82V332.36l-35.74 20.94-36.8-20.62.05 12.42v.02l.48 18.46-.41-.23.21 52.38-26.34-15.21v-68.01l-36.27-20.63-14.09 8.14-4.75 2.74-.12-5.5 36.51-20.98-36-20.79v-20.88l36-20.79-35.34-20.4-1.17-21.46 36.18-20.3-36.18-21.27V129.6l35.88-20.41-35.88-20.56V57.45l108.51 62.06v83.14l90 51.96z"/><path class="cls-9" d="M442 57.45L541.52 0l108 62.35-99 57.16L442 57.45z"/><path class="cls-7" d="M649.52 62.35v83.14l-99 57.16v-83.14l99-57.16z"/><path d="M730.37 192.35l-80.85-46.86-99 57.16 90 52 62.6-36.14 9.09-5.25 27.14-15.67zM676.2 203l-35.48 20.48-27-15.58-.05-31.21L649.72 156l26.48 15.19z" fill="#a09584"/><path class="cls-8" d="M676.2 171.21v31.77l-35.48 20.48-27-15.58-.05-31.21 36.05-20.65 26.48 15.19z"/><path class="cls-7" d="M739.5 405.31l-.15.09.14-21.43v-20.38l-.1-135.15v-30.89l-27.14 15.67-9.09 5.25-62.6 36.14v228.63l99-57.16zm-18 10.15l-63 35.45v-30.25L694.35 400l27.17-15.69zm0-51.88l-63 35.44v-30.25l35.83-20.68 9.27-5.35 17.9-10.33zm0-51.89l-18 10.12-45 25.33v-30.25l35.83-20.69 9.06-5.23 18.11-10.46zm0-51.89L703.33 270l-44.81 25.21V265l35.83-20.68 8.85-5.11 18.32-10.57z"/><path class="cls-8" d="M694.35 399.97l27.17-15.69v31.18l-63 35.45v-30.25l35.83-20.69zM721.52 228.63l-18.32 10.58v-.01l18.32-10.57zM721.52 363.58l-63 35.44v-30.25l35.83-20.68 27.17 15.49zM739.5 405.31l-.15.09.14-21.43.01 21.34z"/><path class="cls-10" d="M721.52 259.8l-18.19 10.24-44.81 25.21V265l35.83-20.68 8.9 5.07 18.27 10.41z"/><path class="cls-8" d="M721.52 228.63l-18.32 10.58v-.01l18.32-10.57z"/><path class="cls-10" d="M721.52 311.69l-17.98 10.12-45.02 25.33v-30.25l35.83-20.69 9.1 5.19 18.07 10.3zM721.52 363.58l-63 35.44v-30.25l35.83-20.68 27.17 15.49zM721.52 384.28v31.18l-63 35.45v-30.25l35.83-20.69 27.17-15.69z"/><path class="cls-13" d="M721.52 384.28v31.18l-27.17-15.49 27.17-15.69z"/><path class="cls-10" d="M442 129.61l81.52 47.06V135.1l-45.17-26.08L442 129.61zM478.18 171.67l46.24 26.3-.73 41.15L442 191.96l36.18-20.29zM442.52 254.61l81 46.9v-41.7l-45-25.98-36 20.78zM523.78 363.58l-.41-.23-26.13-14.8v-16.04l-36.27-20.63-14.09 8.14-4.87-2.76 36.51-20.98 44.17 25.4.61 23.42v.02l.48 18.46z"/><path class="cls-19" d="M497.17 332.54l-5.18 3.03-16.89 9.89-13.67 8.01-22.5-12.61-14.3-8.01 14.24-8.22 20.51-11.84 1.52-.88 14.25 8.11 22.02 12.52z"/><path class="cls-20" d="M523.25 322v31.71l-26.08-15.14v-6.03l-22.02-12.52-14.25-8.11-1.52.88v-26.85L523.25 322z"/><path class="cls-1" d="M532.52 77.94l-27-15.59-.05-31.2 27.05 15.62v31.17z"/><path class="cls-16" d="M568 57.45l-35.48 20.49V46.77L568 25.68v31.77z"/><path class="cls-17" d="M505.47 31.15l36.05-20.66L568 25.68l-35.48 21.09-27.05-15.62z"/><path class="cls-1" d="M640.72 192.29v31.17l-27-15.58-.05-31.21 27.05 15.62z"/><path class="cls-16" d="M676.2 171.21v31.77l-35.48 20.48v-31.17l35.48-21.08z"/><path class="cls-17" d="M676.2 171.21l-35.48 21.08-27.05-15.62 36.05-20.65 26.48 15.19z"/><path class="cls-21" d="M793.15 446.87l9 5.2v-20.83l-9-5.19v20.82z"/><path class="cls-22" d="M811.15 446.87l-9 5.2v-20.83l9-5.19v20.82z"/><path class="cls-5" d="M802.15 431.24l36-20.78-.61-51.61-35.39 20.43v51.96z"/><path class="cls-23" d="M766.15 410.46l36 20.78v-51.96l-36.61-20.43.61 51.61z"/><path class="cls-19" d="M837.54 358.85l-35.39-21.14-36.61 21.14 36.61 20.43 35.39-20.43z"/><path class="cls-21" d="M793.15 363.69l8.54 5.03v-20.64l-7.89-4.79-.65 20.4z"/><path class="cls-22" d="M810.69 363.81l-9 4.91v-20.57l8.81-4.86.19 20.52z"/><path class="cls-21" d="M793.8 343.29l8.35-5.58 8.35 5.58-8.81 4.79-7.89-4.79zM751.03 483.55l9.07 5.24V478.4l-9.07-5.24v10.39z"/><path class="cls-22" d="M769.03 473.16v10.39l-8.93 5.24V478.4l8.93-5.24z"/><path class="cls-23" d="M733.03 462.77l27.07 15.63v-31.26l-27.07-15.37v31z"/><path class="cls-5" d="M787.03 462.77L760.1 478.4v-31.26l26.63-15.37.3 31z"/><path class="cls-19" d="M733.03 431.77l27.07-15.72 26.63 15.72-26.63 15.37-27.07-15.37z"/><path class="cls-22" d="M759.88 436.7l8.85-4.93.3-10.45-9.15 4.99v10.39z"/><path class="cls-21" d="M751.03 431.59l8.85 5.11v-10.39l-9.05-4.99.2 10.27z"/><path class="cls-21" d="M769.03 421.32l-8.93-5.27-9.27 5.27 9.05 4.99 9.15-4.99zM379.52 644.3v10.4l-9.07-5.24v-10.39l9.07 5.23z"/><path class="cls-22" d="M388.45 638.77v10.39l-8.93 5.24V644l8.93-5.23z"/><path class="cls-23" d="M379.52 613.04v31.26l-9.07-5.23-18-10.4v-31l8.07 4.58 19 10.79z"/><path class="cls-5" d="M388.45 639.12v-.05l-8.93 5.23v-31.26l8.83-5.1 17.79-10.27.19 19v1.65l.02-.01.1 10.36-18 10.45z"/><path class="cls-8" d="M379.52 644.3l8.93-5.23v.05l-8.93 5.18zM406.35 618.31l-.02.01v-1.65l.02 1.64zM388.45 587.22l-.31 10.45-8.84 4.94-8.85-5.11-.21-10.16.11-.06 9.17-5.33 8.93 5.27z"/><path class="cls-22" d="M388.45 587.22l-.31 10.45-8.84 4.94v-10.4l9.15-4.99z"/><path class="cls-21" d="M379.3 592.21v10.4l-8.85-5.11-.21-10.16v-.12l.11.06 8.95 4.93z"/><path class="cls-21" d="M388.45 587.23l-8.93-5.28-9.28 5.28 9.06 4.99 9.15-4.99z"/><path class="cls-13" d="M550.52 233.83l.16 62.26 17.84 10.48v-62.35l-18-10.39z"/><path class="cls-10" d="M550.68 296.09l17.57-10.15.27 20.63-17.84-10.48z"/><path class="cls-13" d="M595.71 259.91l.16 62.26 17.84 10.48V270.3l-18-10.39z"/><path class="cls-10" d="M595.87 322.17l17.57-10.15.27 20.63-17.84-10.48z"/><path class="cls-19" d="M144.4 383.63l-22.07 12.92-13.67 8.01-22.5-12.61-14.3-8.01 14.24-8.22L108.13 363l14.25 8.11 22.02 12.52z"/><path class="cls-23" d="M108.66 404.56l-.07 23.85-.19 59.12-9.35-5.4-26.65-15.39-.54-82.8 14.3 8.01 22.5 12.61z"/><path class="cls-22" d="M117.7 482.13l-.02 21.94-9.02 5.18-.26-21.72 9.3-5.4z"/><path class="cls-21" d="M108.4 487.53l.26 21.72-9.04-5.25-.57-21.87 9.35 5.4z"/><path class="cls-8" d="M461.41 378.66v1.17l-1.02-.59 1.02-.58z"/><path class="cls-19" d="M595.01 341.77l-35.74 20.94-36.79-20.62 36.27-20.94 36.26 20.62z"/><path class="cls-5" d="M595.01 341.77v135.1l-36 20.79.11-51.56.15-83.39 35.74-20.94z"/><path class="cls-23" d="M559.27 362.71l-.15 83.39-.11 51.56-9.35-5.4-26.65-15.39-.21-51.73-.2-52.38-.08-18.23v-.02l-.04-12.42 36.79 20.62z"/><path class="cls-22" d="M568.32 492.26l-.23 32.11-9.28 5.22.21-31.93 9.3-5.4z"/><path class="cls-21" d="M559.01 497.66l-.2 31.93-8.88-5.12-.27-32.21 9.35 5.4z"/><path class="cls-19" d="M360.52 467.38l-8.58 5.03-.22.12-26.95 15.78-8.26-4.63-28.54-15.98 36.28-20.95 36.27 20.63zM406.14 597.67l-17.79 10.27-8.83 5.1-19-10.79-8.07-4.58 8.07-4.69.96-.55 8.76-5.09.21 10.16 8.85 5.11 8.84-4.94.31-10.45 17.69 10.45z"/><path class="cls-5" d="M360.52 467.38v125.6l-8.07 4.69v9.47l-27.93 16.13.1-52.13.13-73.28.02-9.55 25.65-15.02 1.3-.76.22-.12 8.58-5.03z"/><path class="cls-8" d="M350.9 473.01l-26.13 15.3 26.95-15.78-.82.48z"/><path class="cls-23" d="M324.77 488.31v.07l-.02 9.48-.13 73.28-.1 52.13-9.35-5.4-26.65-15.39-.21-52.3-.34-82.48 28.54 15.98 8.26 4.63z"/><path class="cls-22" d="M333.82 617.9l-.16 21.17-9.14 5.06-.01-20.86 9.31-5.37z"/><path class="cls-21" d="M324.52 623.27v20.86l-9.17-5.15-.18-21.11 9.35 5.4z"/><path class="cls-19" d="M775.62 207.79l-36.27 21.24.02-.59-.02-30.89-8.98-5.2 8.98-5.19 36.27 20.63z"/><path class="cls-5" d="M739.47 363.7l36-20.78v-135.1l-36.27 21.24.27 134.64z"/><path class="cls-13" d="M721.52 228.56v31.24l-18.27-10.41-8.9-5.07 8.85-5.11 18.32-10.65z"/><path class="cls-8" d="M721.52 228.63l-18.32 10.58v-.01l18.32-10.57z"/><path class="cls-13" d="M721.52 280.51v31.18l-18.07-10.3-9.1-5.19 9.06-5.23 18.11-10.46zM721.52 332.4v31.18l-27.17-15.49 9.27-5.35v-.01l17.9-10.33z"/><path class="cls-8" d="M739.37 228.44v.28"/><path class="cls-22" d="M747.72 358.94l-.01 20.37-8.23 4.82-.01-20.43 8.25-4.76z"/><path class="cls-8" d="M739.47 363.67l.02 20.3-.02-20.38v.08z"/><path class="cls-19" d="M85.71 280.73l36.8 20.62 35.74-20.93-36.27-20.63-36.27 20.94z"/><path class="cls-5" d="M144.4 383.63v83.11l-36 20.79.19-59.12.07-23.85 13.67-8.01 22.07-12.92z"/><path class="cls-5" d="M158.26 280.42v135.1l-13.86 8v-39.89l-22.02-12.52.13-69.76 35.75-20.93z"/><path class="cls-23" d="M122.51 301.35l-.13 69.76-14.25-8.11-22.03 12.72-.39-94.99 36.8 20.62z"/><path class="cls-24" d="M71.86 447.35L.91 488.31M936.84 395.04l-159-91.79"/><path fill="#e6efef" d="M387.7 732.46L.65 509.25l.26-20.94 386.67 223.52.12 20.63z"/><path class="cls-23" d="M225.67 504.04l-.07 9.94-.14 21.14-80.81-46.98-.25-30.71 18.93 10.86 62.34 35.75z"/><path class="cls-5" d="M244.07 494.2l-.04 30.42-18.57 10.5.14-21.14.07-9.94 18.4-9.84z"/><path class="cls-19" d="M244.33 494.06l-.26.14-18.4 9.84-62.34-35.75-18.93-10.86 18.93-10.68 81 47.31z"/><path opacity=".46" fill="#acadad" d="M190.33 285.77l11.74 6.79 73.51-40.7-4.25-2.46v-10.35l-81 46.72z"/><path class="cls-4" d="M162.65 550.82l17.65 10.28 18.35-10.28-18.37-10.18-17.63 10.18zM153.58 535.07l17.65 10.28 18.35-10.28-18.37-10.17-17.63 10.17zM118.38 504.38l17.65 10.28 18.35-10.28L136 494.2l-17.62 10.18zM100.38 545.44l17.65 10.27 18.35-10.27L118 535.26l-17.62 10.18zM45.57 493.57l17.65 10.28 18.35-10.28-18.38-10.18-17.62 10.18zM9.57 492.95l17.65 10.28 18.35-10.28-18.38-10.17-17.62 10.17zM198.5 581.91l17.96 10.37 18.04-10.37-18-10.39-18 10.39zM244.07 555.72l17.96 10.37 18.04-10.37-18-10.39-18 10.39zM243.23 576.48l17.96 10.37 18.04-10.37-18-10.4-18 10.4zM243.23 618.33l17.96 10.37 18.04-10.37-18-10.39-18 10.39z"/><path class="cls-4" d="M261.72 618.32l17.96 10.37 18.04-10.37-18-10.39-18 10.39zM388.45 680.74l17.96 10.37 18.04-10.37-18-10.39-18 10.39zM406.63 669.98l17.96 10.37 18.04-10.37-18-10.4-18 10.4zM450.87 633.93l17.96 10.37 18.04-10.37-18-10.39-18 10.39zM468.87 592.35l17.96 10.37 18.04-10.37-18-10.4-18 10.4zM504.75 508.99l17.96 10.37 18.04-10.37-18-10.39-18 10.39zM495.74 524.86l17.96 10.37 18.04-10.37-18-10.4-18 10.4zM693.59 493.62l17.96 10.37 18.04-10.37-18-10.4-18 10.4zM694.35 472.85l17.96 10.37 18.04-10.37-18-10.39-18 10.39zM792.29 457.53l17.96 10.37 18.04-10.37-18-10.39-18 10.39zM820.15 421.1l17.96 10.37 18.04-10.37-18-10.39-18 10.39zM882.31 395.05l17.96 10.37 18.04-10.37-18-10.39-18 10.39zM855.28 389.68l17.97 10.37 18.03-10.37-18-10.4-18 10.4zM837.28 358.34l17.97 10.37 18.03-10.37-18-10.39-18 10.39zM775.15 332.41l17.96 10.37 18.04-10.37-18-10.39-18 10.39zM486.99 467.39l17.96 10.37 18.04-10.37-18-10.39-18 10.39zM408.3 304.58l17.96 10.37 18.04-10.37-18-10.39-18 10.39zM406.42 261.95l17.96 10.37 18.04-10.37-18-10.39-18 10.39zM341.14 675.38l17.96 10.37 18.04-10.37-18-10.39-18 10.39zM414.65 633.93l17.96 10.37 18.04-10.37-18-10.39-18 10.39z"/><path class="cls-19" d="M703.05 447.14l-63 36.36-.47-.28-.07-20.65 45.24-26.13 18.3 10.7z"/><path class="cls-5" d="M703.05 447.14l-.48 20.44-62.92 36.11-.07-20.47.47.28 63-36.36z"/><path class="cls-19" d="M639.58 483.22l-35.93-21.26 18.16-9.73 17.7 10.34 27.35 5.33-27.28 15.32z"/><path class="cls-23" d="M639.65 503.69l-36-20.19v-21.54l35.93 21.26.07 20.47z"/><path fill="#7fb0b2" d="M522.75 561.16l81.62-47.13 26.17 15.94 63.05-36.22 36.27 20.71L531.7 628.79l-27.3-15.8 27.14-15.35L513.31 587l27.42-15.41-17.98-10.43z"/><path class="cls-28" d="M531.31 566.12l73.08-41.71-.02-10.38-81.62 47.13 8.56 4.96zM513.31 618.14l18.55-10.66-.32-9.84-27.14 15.35 8.91 5.15zM522.25 592.22l18.4-10.31.08-10.32L513.31 587l8.94 5.22zM630.54 529.97l.11 10.11 63.05-36.06-.11-10.27-63.05 36.22z"/><path class="cls-29" d="M604.37 514.03l26.17 15.94.11 10.11-26.28-14.82v-11.23zM693.59 493.75l.11 10.27 26.83 15.56 9.33-5.12-36.27-20.71z"/><path class="cls-30" d="M522.57 623.04l27.08-15.15-18.11-10.25.26 10.25-18.49 10.25 9.26 4.9zM531.54 597.64l27.11-15.69-17.92-10.36-.08 10.32-18.4 10.31 9.29 5.42zM720.53 519.57l-8.88 4.84-17.95-10.38-54.19 31.51-26.86-15.62-9 5.34-62.92 36.32-9.31-5.46 72.23-41.29 27 15.24 63.05-36.06 26.83 15.56z"/><path class="cls-31" d="M576.82 581.9l-9.06 5.04 9.06 5.55 9.31-5.29-9.31-5.3zM576.95 571.43l8.97 5.34 8.73-5.34-9-5.1-8.7 5.1zM630.54 561.15l-8.39 4.97-9.5-4.97 8.94-5.16 8.95 5.16zM657.81 545.42l9.05 5.4 9.07-5.25-9.28-5.49-8.84 5.34z"/><path class="cls-32" d="M72.27 439.39l18.55 10.16v20.28l-18.46-9.33-.09-21.11zM89.77 405.45l18.55 10.17v20.27l-18.46-9.33-.09-21.11zM153.67 463.18l9.01 4.93v9.84l-8.96-4.53-.05-10.24zM180.53 488.31l9 4.94v9.83l-8.96-4.52-.04-10.25zM352.66 609.39l8.51 4.83v9.84l-8.46-4.42-.05-10.25zM733.03 452.59l9 4.93v9.84l-8.96-4.53-.04-10.24zM622.32 473.04l9 4.93v9.84l-8.96-4.53-.04-10.24zM539.9 360.51l18.55 10.16v20.27l-19.15-9.67.6-20.76zM522.89 422.87l19.15 10.49v20.27l-19.15-9.67v-21.09zM306.7 550.72l17.54 10.31v20.27l-17.87-9.53.33-21.05zM288.16 513.83l18.5 10.44v20.27l-18.41-9.42-.09-21.29zM765.9 369.3l18.5 10.45v20.27l-18.41-9.42-.09-21.3zM104.44 319.8l17.54 10.31v20.27l-17.87-9.53.33-21.05z"/><path class="cls-20" d="M180.65 311.15l-.14 31.57 72.82 41.93v-31.33l-72.68-42.17z"/><path opacity=".74" fill="#e6efef" d="M180.51 374.23v31.02l53.86 31.09.22-31.51-54.08-30.6z"/><path class="cls-20" d="M288.65 373.9l.41 31.66 54.2 31.3-.24-31.75-54.37-31.21zM450.98 478.26v83.01l-17.57 9.9v-82.71l17.57-10.2zM378.73 426.16v31.08l27.07 15.55 62.95-36.34-.1-30.72-63 35.97-26.92-15.54zM360.65 477.76l9.51 5.21-.42 31.53-9.12-5.29.03-31.45zM459.65 99.05v30.7l63.87 37.06V135.1l-63.87-36.05zM460.07 160.87v31.36l63.87 37.06v-31.7l-63.87-36.72zM459.65 222.93l-.27 31.51 63.87 37.06v-31.71l-63.6-36.86zM558.46 238.41l.32 52.74 9.61 5.49.13-52.42-10.06-5.81zM603.61 264.11l.32 52.74 9.61 5.49.13-52.42-10.06-5.81zM658.52 285.32l53.18-30.71v-20.34L658.52 265v20.32zM658.88 337.55l53.18-30.71V286.5l-53.18 30.73v20.32zM658.88 389.1l53.18-30.7v-20.34l-53.18 30.73v20.31zM658.88 440.98l53.18-30.7v-20.34l-53.18 30.73v20.31z"/><path class="cls-34" d="M334.02 514.66v20.46l17.53-10.22.17-20.8-17.7 10.56zM757.81 322.43v20.46l17.53-10.23.17-20.8-17.7 10.57zM739.92 260.05v20.45l17.54-10.22.16-20.8-17.7 10.57zM820.45 399.62v20.45l17.53-10.22.17-20.8-17.7 10.57zM477.7 358.45v9.73l9.63 5.72 9.67-5.46.17-20.8-19.47 10.81zM140.32 355.69v20.46l17.53-10.23.17-20.8-17.7 10.57zM126.4 436.97v20.46l17.53-10.22.17-20.8-17.7 10.56zM567.32 451.29v20.46l17.54-10.23.16-20.8-17.7 10.57zM685.48 477.76v-9.86l9.07-5.11v9.92l-9.07 5.05zM234.96 519.69v-9.87l9.07-5.11v9.93l-9.07 5.05zM657.58 483.5v-9.87l9.07-5.1v9.92l-9.07 5.05zM775.15 456.01v-9.87l9.07-5.1v9.92l-9.07 5.05z"/><path d="M271.32 515.4h-.09a2.31 2.31 0 01-2.93-2.23v-10.7a2.32 2.32 0 013.3-2.1h0" stroke="#5e5e5e" stroke-miterlimit="10" fill="none"/><path opacity=".53" fill="#535d6b" d="M306.84 270.34l8.49 5.41 45.47-26.4-8.6-4.78-45.36 25.77z"/><path opacity=".76" fill="#535d6b" d="M298.33 264.99l8.51 5.35 45.36-25.77-8.89-5.58-44.98 26z"/><path class="cls-38" d="M640.72 223.46l25.98 15.5 36.42-20.49-26.92-15.49-35.48 20.48zM532.52 77.94l35.13 20.95 36.41-20.95L568 57.45l-35.48 20.49z"/><path class="cls-39" d="M550.68 296.09l17.74 2.82.1-2.27-9.74-5.49-8.1 4.94zM280.33 410.48l23.36 3.65-5.06-3.08-9.73-5.49-8.57 4.92zM370.16 462.98l23.36 3.64-5.06-3.07-9.73-5.49-8.57 4.92zM244.07 524.6l23.36 3.65-5.06-3.08-9.74-5.48-8.56 4.91zM595.79 322.04l17.74 2.82.1-2.28-9.73-5.48-8.11 4.94z"/><path opacity=".56" fill="#3a3a3a" d="M342.41 644.32l-8.75-5.25-9.14 5.06 9.31 5.08-13.68 8.04 80.54 47.04 40.83-23.56-17.44-10.77 8.62-5.32-35.82-20.34-8.43 4.86v-10.04l-8.93 5.18-9.07-5.23v6.92l-15.64-9.07"/><path class="cls-41" d="M406.33 420.67l-.53 52.12 8.74 5.61-8.14 4.79-.05 135.12 71.3 41.67 81.57-47.14-71.89-40.97V435.56l-18.46-9.15-.22-20.68 18.68-10.84V373.9l-81 46.77zM640.52 254.61l-1.01 207.96 18.07 11.06-18 9.59.07 20.47 17.98 10.77 27.02-15.56v10.08l9.04-4.94 27.34 15.54 89.22-51.68-23.3-13.9-.22-22.23-26.63-15.72L741.24 427l-1.72-.92-.17-228.53-98.83 57.06z"/><path class="cls-42" d="M225.46 535.12l27.36 15.6 18.32-10.34-27.07-15.78-18.61 10.52zM513.74 441.92l9.15 5.13.12 29.82 9.87 5.69L514.79 493l-27.35-16.98-.11-40.46-12.58-6.95 8.79-5.09 30.2 18.4zM802.15 452.07l9 4.93-10.32 5.46 10.32 6.07 27-16.46-9.86-5.32-7.84 4.88-9.3-4.76-9 5.2zM760.1 488.79l6.56 4.21 8.49-4.82-6.12-4.63-8.93 5.24z"/><path class="cls-41" d="M559.52 529.97l7.94 5.15.21 10.52 9 5.2-17.92 10.43 44.71 25.82 36.19-20.97-45-26.04-8.85 5.63-9.15-5.63.3-10.21-8.16-5.24-9.27 5.34z"/><path class="cls-43" d="M360.52 592.98l27.83 14.96-8.83 5.1v31.26l-27.07-15.63v-31l8.07-4.69z"/><path class="cls-41" d="M144.86 457.17l-.21 30.97 62.9 36.76.37-31.08 17.54-10.43.66-41.96-18.47-10.32-.17-10.44-26.97-15.42-.16-10.21-18 10.39.98 41.32-18.47 10.42zM180.51 333.07v9.65l9.3 5.73-9.3 5.26v20.52l-17.12-9.78v-21.43l17.12-9.95z"/><path class="cls-43" d="M108.66 509.25l8.63 5.41-13.44 7.75 80.66 46.8 37.74-21.52-81.09-46.7-14.43 8.26-9.05-5.18-9.02 5.18z"/><path class="cls-44" d="M738.65 384.66l9 5.14-17.95 10.25 60.08 34.72 3.37 2.03 18 10.07 9-5.46 17.61-10.17.39-20.78-.5-51.91-36-21-36.11 21.3.11 20.09-9 5.34-8.94-4.97-9.06 5.35z"/><path class="cls-43" d="M125.69 477.55l18.96 10.92-.25-21.73-18.71 10.81z"/><path class="cls-44" d="M437.87 325.21l36.17 20.88-12.61 7.38.04 5.68-36.73-20.95-.11-5.35 13.24-7.64z"/></g></g></svg>