<svg xmlns="http://www.w3.org/2000/svg" viewBox="0 0 998.62 970.04"><defs><linearGradient id="linear-gradient" x1="644.14" y1="19.92" x2="672" y2="41.57" gradientUnits="userSpaceOnUse"><stop offset=".62" stop-color="#c6b59b"/><stop offset=".72" stop-color="#e1d1b5"/></linearGradient><style>.cls-2{fill:#7ab851}.cls-5{fill:#3f3f3f}.cls-6{fill:#e6efef}.cls-7{fill:#609136}.cls-8{fill:#eaea1f}.cls-9{fill:#bababa}.cls-11{fill:#605c53}.cls-12{fill:#e1d1b5}.cls-13{fill:#f0e0c4}.cls-14,.cls-15,.cls-23,.cls-34{fill:#363d44}.cls-14,.cls-16{opacity:.5}.cls-15{opacity:.31}.cls-16{fill:#3a3a3a}.cls-17{fill:#5d7842}.cls-24{fill:#4d6683}.cls-26{fill:#182825}.cls-27{fill:#cad1d1}.cls-28{fill:#ffdcd9}.cls-34{opacity:.38}</style></defs><g id="Layer_2" data-name="Layer 2"><g id="Layer_6" data-name="Layer 6"><path fill="#535d6b" d="M0 696.24l474.24 273.8L998.62 667.1 523.76 393.61 0 696.24z"/><path class="cls-2" d="M899.32 550.66l-.54-13.94-381.06-220.63L17.33 605.22l453.08 261.59 489.41-282.75-60.5-33.4z"/><path fill="#acadad" d="M17.39 632.72l-.06-27.5 453.08 261.59v27.53L17.39 632.72z"/><path fill="#7c7c7c" d="M959.48 584.26L470.41 866.81v27.53L971.39 604.9v-14.35l-11.91-6.29z"/><path class="cls-5" d="M971.39 590.55L470.41 879.98l-72.04-41.18 500.95-288.14M899.32 550.66l72.07 39.89"/><path class="cls-6" d="M458.47 859.48l11.94 7.33 23.71-13.91-12.17-7.02-23.48 13.6zM518.45 825.12l11.95 7.33 23.7-13.92-12.17-7.01M578.44 790.76l11.94 7.33 23.71-13.92-12.17-7.01-23.48 13.6zM638.43 756.4l11.94 7.33 23.71-13.91-12.17-7.02-23.48 13.6zM698.42 722.04l11.94 7.33 23.71-13.92-12.17-7.01-23.48 13.6zM758.4 687.68l11.95 7.33 23.7-13.92-12.17-7.01-23.48 13.6zM818.39 653.32l11.94 7.33 23.71-13.92-12.17-7.01-23.48 13.6zM878.38 618.96l11.94 7.33 23.71-13.92-12.17-7.01-23.48 13.6z"/><path class="cls-7" d="M220.47 708.14l11.95 6.87 11.1-6.41-11.24-7.28-11.81 6.82zM255.7 738.34l11.96 6.97 11.67-6.78-11.97-7.15-11.66 6.96zM756.58 577.6l11.95 6.97 11.67-6.78-11.96-7.16-11.66 6.97M768.39 556.94l11.96 6.97 11.66-6.78-11.96-7.15-11.66 6.96zM851.39 536.23l11.96 6.97 11.67-6.78-11.97-7.15-11.66 6.96zM815.96 543.2l11.95 6.97 11.67-6.78-11.96-7.15-11.66 6.96zM727.23 468.63l11.95 6.97 11.67-6.78-11.96-7.15-11.66 6.96zM623.93 649.48l11.96 6.97 11.67-6.78-11.97-7.15-11.66 6.96zM450.48 765.96l-11.96-7.16-11.66 6.96 11.95 6.98 11.67-6.78M425.44 779.41l12.21 6.71 11.62-6.71-11.91-6.82-11.92 6.82zM124.92 667.16l12.21 6.72 11.63-6.72-11.92-6.81-11.92 6.81z"/><path class="cls-8" d="M160.46 618.97l-11.92 6.82 12.21 6.71M481.95 511.82l12.21 6.72 11.62-6.72-11.91-6.81-11.92 6.81zM374.68 462.82l12.21 6.72 11.62-6.72-11.91-6.81-11.92 6.81zM387.92 800.52l12.21 6.72 11.63-6.72-11.92-6.81-11.92 6.81zM161.46 600.55l12.21 6.71 11.63-6.71-11.92-6.81-11.92 6.81zM316.41 744.9l12.21 6.72 11.63-6.72-11.92-6.81-11.92 6.81zM624.97 662.79l12.21 6.72 11.63-6.72-11.92-6.81-11.92 6.81zM280.65 752.85l12.21 6.71 11.63-6.71-11.92-6.82-11.92 6.82zM256.81 711.79l12.21 6.72 11.63-6.72-11.92-6.81-11.92 6.81zM756.47 563.96l12.21 6.71 11.63-6.71-11.92-6.81-11.92 6.81M529.91 484.34l12.21 6.72 11.63-6.72-11.92-6.81-11.92 6.81z"/><path class="cls-7" d="M112.74 577.6l12.29 7.43 11.66-7.43-11.98-6.72-11.97 6.72zM65.22 591.33l11.7 7.01 12.14-7.01-11.56-7.08-12.28 7.08z"/><path class="cls-8" d="M65.22 605.26l11.7 7.01 12.14-7.01-11.56-7.08-12.28 7.08z"/><path class="cls-7" d="M387.87 456.65l12.21 6.71 11.62-6.71-11.91-6.82-11.92 6.82zM387.87 470.17l12.21 6.71 11.62-6.71-11.91-6.81-11.92 6.81zM375.63 435.96l12.21 6.71 11.62-6.71-11.91-6.82-11.92 6.82zM435.64 498.02l12.21 6.71 11.63-6.71-11.92-6.81-11.92 6.81zM495.13 490.8l12.21 6.71 11.63-6.71-11.92-6.82-11.92 6.82zM447.04 477.33l12.21 6.72 11.62-6.72-11.91-6.81-11.92 6.81zM518.57 518.23l12.21 6.71 11.63-6.71-11.92-6.82-11.92 6.82zM542.38 463.41l12.21 6.71 11.62-6.71-11.92-6.81-11.91 6.81zM506.65 456.65l12.22 6.71 11.62-6.71-11.92-6.82-11.92 6.82z"/><path class="cls-9" d="M399.01 825.7l-.64 13.61 500.95-288.65-.04-13.94L399.01 825.7z"/><path fill="#d3d3d3" d="M387.02 819.47v13.22l11.35 6.62.64-13.61-11.99-6.23z"/><path class="cls-6" d="M887.85 529.77l11.43 6.95L399.01 825.7l-11.99-6.23 500.83-289.7z"/><path class="cls-11" d="M547.64 409.61l-84.28 48.65-.01-163.43 84.28-48.65.01 163.43z"/><path class="cls-12" d="M463.35 458.26l-84.29-48.65.01-163.43 84.28 48.65v163.43z"/><path class="cls-13" d="M379.07 246.18l84.37-48.49 84.19 48.49-84.28 48.65-84.28-48.65z"/><path class="cls-14" d="M463.35 458.26l91.27 52.45 85.08-50.08-90.82-52.33-85.53 49.96z"/><path class="cls-11" d="M719.3 439.66l-84.28 48.65-.01-163.42 84.29-48.66v163.43z"/><path class="cls-12" d="M635.01 488.31l-84.28-48.65V276.23l84.28 48.66v163.42z"/><path class="cls-13" d="M550.73 276.23l84.37-48.48 84.2 48.48-84.29 48.66-84.28-48.66z"/><path class="cls-15" d="M613.63 475.97l-54.05-158.29-8.85 101.36v20.62l62.9 36.31z"/><path class="cls-11" d="M352.07 464.59l-50.68 29.26V313.66l50.68-29.26v180.19z"/><path class="cls-12" d="M301.38 493.85l-50.68-29.26.01-180.19 50.68 29.26-.01 180.19z"/><path class="cls-13" d="M250.82 284.86l50.57-30.11 50.56 30.11-50.56 29.19-50.57-29.19z"/><path class="cls-11" d="M280.99 546.43l-84.29 48.66V431.66l84.28-48.65.01 163.42z"/><path class="cls-12" d="M196.69 595.09l-84.28-48.66V383.01l84.29 48.65-.01 163.43z"/><path class="cls-13" d="M112.41 383.01l84.37-48.49 84.2 48.49-84.28 48.65-84.29-48.65z"/><path class="cls-14" d="M196.7 594.8l45.96 27.41 56.62-47.5-36.23-18.21-66.35 38.3z"/><path class="cls-16" d="M444.22 495.41l9.85 6 4.47 2.55 4.61 2.83S441 533.5 480.58 537.58s73.47 9.34 55.3-15.25-64.75-16-64.75-16l-8.23-4-5.2-2.92-9.09-5.41z"/><path class="cls-6" d="M448.91 448.86h-5.09v45.84a.43.43 0 000 .05c0 .68 1.14 1.24 2.54 1.24s2.55-.56 2.55-1.24a.43.43 0 000-.05z"/><path class="cls-17" d="M444.46 468.28s9.84 2.82 12.26 2.12 11.52-3.7 13.29-7.47 6.72-10.05 11.68-12.53 7.8-5.46 6.73-10.4-1.25-10.46-5-13.95-.27-8.24-1.77-13c-1.56-4.9-2.62-5.77 0-11s4.17-12.18 1.19-17.54-5.89-9.43-8.75-10.26-9.08-3.94-10.61-2.83-7.43 3.48-7.61 7.65-1.38 8.7 1.81 12.87 5.51 5.59 5.34 9.08-6.08 8.48-11.26 13-9 8.08-9.76 11.31-1.68 8.78-.33 11.64 5.27 9.82 5.18 10.53.73 2.68.32 5.9-5.6 12.8-5.5 13.36 2.79 1.52 2.79 1.52z"/><path class="cls-7" d="M432.61 470.69s-15.23-8.62-17.11-19.33-2.33-33.89.53-38.36 7.7-13.66 15.43-19 9.93-9.6 7.89-17.94-5.56-7.47-.23-18.72 4-13.05 8-14.77c3.36-1.44 14.12-4 15.56 3.21s8.25 19.06 9.7 27.19-8.57 26-4.62 28.52a19.45 19.45 0 018.84 12.31c1.22 5.78.73 11.54 0 13.17s-5.84 8.76-10.16 11 1.83 6.21-.43 12.53-11.06 6.36-11 10.63 2.45 5.47-3.52 9.55-18.88.01-18.88.01z"/><path class="cls-2" d="M403.19 438.5c1-15.46 4.44-41.15 16.9-48.76s5.82-31.57 9.06-35.48 13.71-23.34 22.45-24.51 6.5.82 12.54 8.14-.47 8.94-3.52 19.62 9.87 12.33 2.06 20.91-8.21 16.82-6.73 23.05-10.86 18.26-8.11 22.43 7.25 9.58 8.37 16.45-3.37 15.6-3.37 15.6.56 12.48-15.39 11.78c-28.69-1.26-35.26-13.77-34.26-29.23"/><path class="cls-5" d="M444.65 474.88a24.81 24.81 0 003 1.24l.46 1.16M444.15 478a3.46 3.46 0 001.81 0l.53 1.86M445.2 483a5.37 5.37 0 002.74-.55l.54 1.86"/><path class="cls-7" d="M415.38 447.52c.2 1.87 3.56 3.67 3.56 3.67l-3.78 3.1M428 398.77c1.74-.79 3.28-4.15 3.28-4.15l3.05 2M438.13 414.74c1.54-.48 3.2-3.12 3.2-3.12l2.34 2M436 361.18c.85 1.8 4.31 3.43 4.31 3.43l-2 3.12M444 348.86c2.23-.53 4-4.81 4-4.81l4.2 4M450.66 374.85c1 1.76 5.16 1.74 5.16 1.74l-2.59 5.16M434.23 431.16c-2.39-.12-5.86 3-5.86 3l-2.44-4.38M436.28 459.26c2.14 1.05 6.6 0 6.6 0l.43 4.44M442.74 446.92c.71-1.69.2-5.12.2-5.12l2.75-.48M411.15 422c1.89.54 5.31-1.11 5.31-1.11l1.05 3.72"/><path class="cls-5" d="M444.07 488.46c1 .28 1.9-1.69 1.9-1.69l1.07 1.39M445.68 492.11c1 .27 2.18-1.36 2.18-1.36l.53 1.86M445 473.31a8.08 8.08 0 002.73-.05l.56.68M444.22 494.18a2 2 0 001.76-.47l.38 1.56"/><path fill="#a59986" d="M507.43 642.8l-66.36-38.31v-47.2l66.36 38.31v47.2z"/><path class="cls-13" d="M507.43 595.6l-66.36-38.31 66.36-38.32 66.35 38.32-66.35 38.31z"/><path class="cls-11" d="M573.79 604.49l-66.35 38.31-.01-47.2 66.36-38.31v47.2z"/><path class="cls-14" d="M504.7 640.74l29.76 18.77 8.88-8.21-27.47-17.01-11.17 6.45z"/><path class="cls-16" d="M162.49 604.96l8.37 5.14v4.55l6.94 4.15 3.28-1.92-6.97-4.09-.17-4.4-7.72-4.65-3.73 1.22z"/><path class="cls-6" d="M166.47 565.4h-4.32v39c0 .58 1 1.05 2.16 1.05s2.16-.47 2.16-1.05z"/><path class="cls-17" d="M162.69 581.9s8.37 2.4 10.42 1.81 9.8-3.15 11.3-6.35 5.71-8.54 9.92-10.66 6.63-4.63 5.72-8.83S199 549 195.8 546s-.23-7-1.5-11-2.22-4.9 0-9.36 3.55-10.34 1-14.91-5-8-7.43-8.71-7.72-3.35-9-2.41-6.31 3-6.46 6.51-1.16 7.37 1.59 10.88 4.69 4.75 4.54 7.71-5.16 7.22-9.57 11.09-7.64 6.87-8.29 9.62-1.43 7.45-.29 9.88 4.49 8.35 4.41 9 .62 2.27.27 5-4.76 10.88-4.68 11.36 2.3 1.24 2.3 1.24z"/><path class="cls-7" d="M152.62 584s-12.94-7.33-14.54-16.43-2-28.8.45-32.59 6.54-11.62 13.12-16.14 8.44-8.16 6.7-15.25-4.73-6.34-.19-15.91 3.41-11.09 6.82-12.55c2.85-1.22 12-3.43 13.22 2.73s7 16.2 8.25 23.11-7.29 22.06-3.93 24.24a16.49 16.49 0 017.48 10.4c1 4.92.63 9.81 0 11.2s-5 7.45-8.63 9.34 1.55 5.28-.37 10.65-9.39 5.4-9.38 9 2.08 4.65-3 8.12-16 .08-16 .08z"/><path class="cls-2" d="M127.62 556.59c.85-13.13 3.78-35 14.36-41.44s5-26.83 7.7-30.15 11.65-19.84 19.08-20.83 5.52.7 10.66 6.92-.4 7.59-3 16.67 8.39 10.48 1.76 17.77-7 14.3-5.72 19.59-9.23 15.52-6.89 19.06 6.16 8.14 7.11 14-2.86 13.27-2.86 13.27.47 10.6-13.09 10c-24.38-1.07-30-11.71-29.11-24.85"/><path class="cls-5" d="M162.85 587.51a21.24 21.24 0 002.53 1l.39 1M162.43 590.15a2.89 2.89 0 001.53 0l.46 1.58M163.32 594.42a4.52 4.52 0 002.33-.47l.46 1.59"/><path class="cls-7" d="M138 564.26c.17 1.59 3 3.12 3 3.12l-3.21 2.62M148.71 522.83c1.47-.68 2.78-3.53 2.78-3.53l2.59 1.73M157.31 536.4c1.31-.41 2.72-2.65 2.72-2.65l2 1.73M155.48 490.88c.72 1.53 3.66 2.92 3.66 2.92l-1.72 2.65M162.3 480.41c1.89-.45 3.39-4.09 3.39-4.09l3.56 3.39M168 502.5c.82 1.5 4.38 1.48 4.38 1.48l-2.2 4.38M154 550.35c-2-.1-5 2.56-5 2.56l-2-3.72M155.74 574.24c1.82.89 5.61 0 5.61 0l.37 3.77M161.23 563.75c.61-1.44.17-4.35.17-4.35l2.34-.41M134.39 542.53c1.6.47 4.51-.93 4.51-.93l.89 3.16"/><path class="cls-5" d="M162.36 599.06c.83.23 1.62-1.44 1.62-1.44l.9 1.18M163.73 602.16c.83.23 1.85-1.16 1.85-1.16l.46 1.58M163.17 586.18a6.88 6.88 0 002.32 0l.48.58M162.49 603.92a1.72 1.72 0 001.5-.41l.32 1.33"/><path class="cls-12" d="M355.81 715.83l-134.85-77.85V536.85l134.85 77.85v101.13z"/><path class="cls-11" d="M490.67 637.98l-134.85 77.85-.01-101.13 134.85-77.85.01 101.13z"/><path class="cls-13" d="M220.96 536.85l134.85-79.92 134.85 79.92-134.85 77.85-134.85-77.85z"/><path class="cls-14" d="M401.53 685.33l91.26 52.45 85.09-50.09L488.91 637l-87.38 48.33z"/><path class="cls-11" d="M233.53 371.53l-50.68 29.25-.01-180.19 50.68-29.25.01 180.19z"/><path class="cls-12" d="M182.83 400.78l-50.67-29.25V191.34l50.68 29.25-.01 180.19z"/><path class="cls-13" d="M132.27 191.79l50.57-30.11 50.57 30.11-50.57 29.2-50.57-29.2z"/><path class="cls-14" d="M182.84 400.6l33.49 19.97 50.42-29.11-33.22-19.93-50.69 29.07z"/><path fill="#4b565e" opacity=".4" d="M299.44 490.1l62.39 36.86 50.42-29.11-62.92-37.31-49.89 29.56z"/><path class="cls-12" d="M691.32 0l-72.77 32.94 24.73 17.6L691.32 0z"/><path class="cls-9" d="M691.32 0l-43.24 57.32 17.6 20.82L691.32 0z"/><path fill="#d8c7ab" d="M691.32 0l-43.24 54.7 17.6 20.82L691.32 0z"/><path fill="#b5a58f" d="M640.91 48.85l-7.4 19.38L691.32 0l-50.41 48.85z"/><path fill="url(#linear-gradient)" d="M633.51 68.23l16.81-10.89 41-57.34-57.81 68.23z"/><path class="cls-12" d="M490.56 201.86l-1.76-2c4-3.54 7.81-7.21 11.46-10.89l1.88 1.86a238.01 238.01 0 01-11.58 11.03zM513 179.13l-2-1.73c3.49-4 6.82-8.17 9.9-12.3l2.12 1.58c-3.13 4.18-6.5 8.37-10.02 12.45zm19.06-25.65l-2.25-1.4c2.85-4.56 5.46-9.18 7.74-13.73l2.37 1.19a177.01 177.01 0 01-7.87 13.94zM521.62 125a144 144 0 01-16-1.54l.41-2.62a138.64 138.64 0 0015.66 1.51zm24.71-.1l-1.91-.71c-2.24.25-4.5.46-6.77.61l-.17-2.64c2.43-.17 4.86-.39 7.26-.67a114.46 114.46 0 003.59-12.56l2.59.58a117.87 117.87 0 01-3.25 11.6q2.75-.37 5.43-.87l.47 2.61c-2.26.41-4.56.76-6.88 1.06zM490 120a101.78 101.78 0 01-15.09-5.58L476 112a99 99 0 0014.69 5.43zm79.18-1l-.8-2.53c1.41-.44 2.8-.91 4.17-1.4a110.23 110.23 0 0010.45-4.36l1.14 2.39a112.67 112.67 0 01-10.67 4.44c-1.47.51-2.88.98-4.31 1.46zM461 106.1a47 47 0 01-11-11.93l2.24-1.41A44.4 44.4 0 00462.67 104zm137-.91l-1.38-2.19a122.41 122.41 0 0012.53-9.49l1.73 2a125.09 125.09 0 01-12.8 9.68zm-45-11.68l-2.64-.12c0-1.11.07-2.21.07-3.3a65.07 65.07 0 00-1.12-12.21l2.6-.5a67.8 67.8 0 011.17 12.71c.09 1.13.06 2.27.01 3.42zm69.27-9.22l-2-1.78a140.27 140.27 0 009.92-12.23l2.15 1.55a144.09 144.09 0 01-9.98 12.46zm-177.58-5.58a41.38 41.38 0 01-.23-4.35A48 48 0 01446 62.49l2.57.66a45.06 45.06 0 00-1.46 11.21 39.1 39.1 0 00.21 4.08zm99.61-15.39c-.35-.64-.71-1.27-1.09-1.89A55.94 55.94 0 00534.93 51l1.87-1.87a58.78 58.78 0 018.68 10.9c.39.66.78 1.33 1.14 2zM454.63 49l-2.25-1.4a46.32 46.32 0 0110.79-12.18l1.63 2.09A43.44 43.44 0 00454.63 49zm68.15-7.7a76.55 76.55 0 00-13.89-7.11l1-2.47A78.65 78.65 0 01524.22 39zm-44.26-10.36l-.6-2.58a47.57 47.57 0 0116.26-.7l-.32 2.63a44.47 44.47 0 00-15.34.65z"/><g id="Трубка"><path class="cls-23" d="M541.54 104.59L410.41 28.94a11.71 11.71 0 00-11.42-.2l-12.27 7 154.91 392.4 11.94-6.82a11.73 11.73 0 006-10.3v-275.2a36.05 36.05 0 00-18.03-31.23z"/><path class="cls-24" d="M530 428l-131.14-75.57a36 36 0 01-18.06-31.23V46.03a11.85 11.85 0 0117.77-10.26l131.13 75.65a36 36 0 0118 31.22l.06 275.1A11.85 11.85 0 01530 428z"/><path fill="#909da5" d="M388.18 71.09l152.56 88.08V406.9l-152.56-88.09V71.09z"/><path class="cls-23" d="M413.3 267.93l110.5 63.91a6.93 6.93 0 013.47 6l.18 33.79a2.43 2.43 0 01-.79 1.77c-.7.68-4.56 4.55-4.56 4.55L404.65 271.86s5.11-3.26 5.87-3.77a2.77 2.77 0 012.78-.16z"/><path class="cls-26" d="M407.3 271.66l112 64.69a6.93 6.93 0 013.47 6l.18 33.79a2.36 2.36 0 01-3.54 2.05l-112.17-64.85a6.93 6.93 0 01-3.47-6V273.7a2.35 2.35 0 013.53-2.04z"/><path class="cls-13" d="M441.63 320.79l-6.47-3.73a.78.78 0 01-.42-.72v-13.65c0-.31.14-.39.42-.23l1.67 1a.79.79 0 01.41.72v11.35a.43.43 0 00.24.39l4.15 2.39a.77.77 0 01.39.73v1.54c-.02.28-.13.36-.39.21zM444.89 322.68l-1.89-1.09a.49.49 0 01-.23-.62l3.11-11.85c.09-.27.28-.31.59-.14l2.61 1.51a1.15 1.15 0 01.59.82l3.11 15.44c.08.37 0 .48-.24.34l-1.89-1.09a.7.7 0 01-.29-.27 1.59 1.59 0 01-.12-.44l-.55-2.82-3.83-2.21-.56 2.18a.42.42 0 01-.12.3c-.06.03-.18.01-.29-.06zm-.16-16.63v-2c0-.31.13-.39.38-.24l1.57.91a.7.7 0 01.38.64v2c0 .32-.12.41-.37.26l-1.57-.9a.76.76 0 01-.39-.67zm3 6.42l-1.41 5.74 2.91 1.68-1.42-7.38zm.73-4.26v-2c0-.3.13-.38.38-.24l1.57.91a.7.7 0 01.37.65v2c0 .32-.12.41-.37.26l-1.58-.91a.74.74 0 01-.36-.67zM456.59 329.43l-1.67-1a.79.79 0 01-.41-.72V314.1c0-.31.14-.39.41-.23l1.67 1a.78.78 0 01.42.72v5.33a.43.43 0 00.23.39l3.33 1.92c.14.08.21 0 .21-.13v-5.33q0-.48.42-.24l1.67 1a.79.79 0 01.41.72v13.65c0 .31-.14.39-.41.23l-1.68-1a.79.79 0 01-.41-.72v-5.31a.42.42 0 00-.21-.38l-3.33-1.91c-.15-.09-.23-.06-.23.11v5.31q-.01.44-.42.2zM472.68 338.72l-6.43-3.72a.77.77 0 01-.41-.72v-13.64c0-.32.13-.39.41-.24l6.43 3.72a.75.75 0 01.39.7v1.54c0 .32-.13.41-.39.25l-4.11-2.37q-.24-.14-.24.12v2.95a.42.42 0 00.24.38l3.36 1.95a.75.75 0 01.42.71v1.54q0 .48-.42.24l-3.36-1.94c-.16-.09-.24-.05-.24.11v3.16a.43.43 0 00.24.39l4.11 2.37a.76.76 0 01.39.7v1.55c0 .32-.13.4-.39.25zM479.17 342.47l-1.65-1a.8.8 0 01-.44-.73v-11.33a.42.42 0 00-.21-.38l-2.24-1.29a.78.78 0 01-.42-.72v-1.54q0-.48.42-.24l7.43 4.29a.77.77 0 01.41.72v1.54c0 .32-.13.4-.41.24l-2.24-1.29c-.16-.09-.24-.06-.24.11v11.38c0 .31-.14.39-.41.24zM485.28 346l-1.88-1.09a.48.48 0 01-.24-.61l3.11-11.85c.09-.27.29-.31.59-.14l2.61 1.51a1.13 1.13 0 01.59.82l3.11 15.44c.08.36 0 .48-.24.34l-1.88-1.09a.67.67 0 01-.3-.27 1.59 1.59 0 01-.12-.44l-.55-2.82-3.83-2.21-.55 2.18c0 .16-.07.26-.13.3s-.16 0-.29-.07zm-.15-16.62v-2c0-.3.12-.38.37-.23l1.57.9a.71.71 0 01.38.65v2c0 .32-.13.41-.38.26l-1.57-.9a.75.75 0 01-.37-.69zm3 6.42l-1.42 5.74 2.91 1.68-1.42-7.38zm.72-4.26v-2c0-.3.13-.38.38-.24l1.57.91a.7.7 0 01.37.65v2c0 .32-.12.41-.37.26l-1.57-.91a.73.73 0 01-.37-.68z"/><path class="cls-27" d="M445.25 73.86v4.66a3.51 3.51 0 001.75 3.06l33.69 19.18a1.32 1.32 0 002-1.15v-4.34a3.52 3.52 0 00-1.79-3.06l-33.68-19.49a1.31 1.31 0 00-1.97 1.14z"/><ellipse class="cls-27" cx="419.54" cy="61.75" rx="2.44" ry="4.22" transform="matrix(.87 -.5 .5 .87 25.33 218.04)"/><ellipse class="cls-27" cx="511.62" cy="114.94" rx="3.63" ry="6.29" transform="rotate(-30 511.62 114.948)"/><path class="cls-23" d="M406.67 220.79l-.19-88.18a7.24 7.24 0 0110.87-6.28l100.11 58a16 16 0 018 13.81l.23 88.21a7.24 7.24 0 01-10.86 6.29l-100.17-58a16 16 0 01-7.99-13.85z"/><path class="cls-13" d="M404.77 222.68l-.18-88.17a7.25 7.25 0 0110.87-6.29l100.11 58a16 16 0 018 13.81l.24 88.21a7.24 7.24 0 01-10.87 6.28l-100.16-58a16 16 0 01-8.01-13.84z"/><path class="cls-23" d="M415.87 145.1c4 6.2 7.7 12.5 11.39 18.83s7.27 12.73 10.84 19.12q10.63 19.23 20.58 38.81l-3.16-1.08q6.92-3.1 13.87-6.09c4.64-2 9.31-3.94 14-5.91s9.35-3.85 14.06-5.68 9.44-3.66 14.21-5.36c-4.41 2.5-8.86 4.9-13.34 7.25s-9 4.64-13.48 6.95-9 4.52-13.59 6.72-9.09 4.39-13.67 6.53l-2.06 1-1.1-2Q444 204.73 434.3 185c-3.2-6.58-6.4-13.17-9.48-19.82s-6.12-13.29-8.95-20.08zM415.87 224.7l21.46-16.84 1.18 1.62-22.64 15.22zM511.62 278.53l-34.46-53.3 1.7-1.06 32.76 54.36z"/></g><g id="Чел"><path class="cls-28" d="M429.11 338.13l7.23 7.8 1-1a32 32 0 017.2-5.08c1.19-.61 2.68-1.36 4.62-2.27 1-.49 4.36-4.31 1.9-7.47-.26-.34-2.18-1.53-1.9-3 .44-2.23 4.86-4.59 3.62-5.57-.88-.69-4.39 2.14-6.26 3.25-1.06.63-2 1.3-2.32 1.39-5.34 1.88-15.09 11.95-15.09 11.95zM379 224.92s6.06 22.76.38 35.38c-3.63 8-16 8.53-18.62 11.5s-4.91 12.2-4.91 12.2L344 280.52l.31-14.16-2.73-27z"/><path class="cls-24" d="M311.36 382.76s-2.41 23 .93 39.12 4.08 43.6 1.86 51.57-1.12 56.46-.68 60.17 16.08-2.19 16.08-2.19l2.29-31.57a102.8 102.8 0 013.33-19.71 66 66 0 002.21-11.15 43.6 43.6 0 00.36-8.24 95.89 95.89 0 01-.75-18.39l1.11-15.5 16.3 31.72s1.11 7.08 0 11.69c-1 4.31-2.7 18.13-3.83 28.05a174.2 174.2 0 00-1.11 20.8l.12 20.77s12.38 2.17 16.09.13c2.44-1.34 3-15.22 3.06-24.6a85.36 85.36 0 012-17.6c2.17-9.85 5.33-24.68 5.45-28 .54-14-4.48-69-4.48-69z"/><path class="cls-23" d="M317.77 270.9a32.33 32.33 0 0117.49-2.09c1.72.28 5.79 1.75 6.34 2.37 1.67 1.85 2.73 4.58 10.27 7.17 9.95 3.43 13.57 1.85 16.54 3.7s16.79 5.52 20.32 27.41c2.62 16.3 4.32 29.51 5 35.2a7.39 7.39 0 004.19 5.86c2.62 1.21 6.51 1.78 11.38-1 7.45-4.24 15.25-9.51 18.22-11.56a2.52 2.52 0 012.69-.11c2.44 1.43 7 4.75 5.8 8.89-1.67 5.56-33.95 22.44-33.95 22.44s-11.5 4.46-14.47 0-13.91-19.48-14.84-24.67 1.11 58.25 1.11 58.25-51 4.87-64.13-16.65l4.77-34.92s-22-14.9-22.26-20.78c-.62-12.3 5.75-38 17.06-53.06 1.58-2.94 5.01-5.03 8.47-6.45z"/><path class="cls-26" d="M308 304.26l-4.87 18.45a8.59 8.59 0 001.25 7.06l3.29 4.74a.42.42 0 00.77-.24v-29.95a.22.22 0 00-.44-.06z"/><path class="cls-23" d="M312.82 533.44s8.59.16 12.68-1.14 15.92-3.25 18.33-2.2a3.65 3.65 0 012.19 2.28c.51 1.9-.49 3-2.2 4-3.26 1.85-23.29 9.73-27.76 10.61-3 .59-2.6-3-3-6.18a67.17 67.17 0 01-.24-7.37zM349.3 539.5s8.6.16 12.68-1.14 15.92-3.25 18.34-2.2a3.68 3.68 0 012.19 2.28c.51 1.9-.5 3-2.21 4-3.3 1.81-23.3 9.69-27.75 10.56-3 .59-2.61-3-3-6.18a67.17 67.17 0 01-.25-7.32z"/><path d="M380.69 219.61s2.47 6.43 0 7.42-8.91 2-9.16 6.18 0 17.56 0 17.56-3 5.2-5.44 1.24-1.23-9.15-6.68-7.17 0 19.78 0 19.78-3.21 5.57-8.16 4.58-25.23-7.54-20.78-33.76 30.43-22.51 30.43-22.51 18.8.56 19.79 6.68z" fill="#3a3a3a"/><path d="M314.29 546.57l85.83 42.77 32-18.72-4.32-2.8a80.11 80.11 0 00-21.37-9.71l-10-2.87a75 75 0 01-17.76-7.67l-.94-.56 3.48-1.62a5.17 5.17 0 001.29-6.95l-31.06 13.1-13.61-7.6a.61.61 0 010-1.08l6.1-3.1a4.31 4.31 0 00.47-6.34z" opacity=".51" fill="#363d44"/></g><path class="cls-11" d="M850.81 518.51l-50.68 29.26-.01-180.19 50.68-29.26.01 180.19z"/><path class="cls-12" d="M800.12 547.77l-50.69-29.26.01-180.19 50.68 29.26v180.19z"/><path class="cls-13" d="M749.55 338.78l50.57-30.11 50.57 30.11-50.57 29.19-50.57-29.19z"/><path opacity=".49" fill="#363d44" d="M850.81 518.51l48.51 30.56v1.59l11.6 6.41-48.96 28.29-61.84-37.59 50.69-29.26z"/><path opacity=".27" fill="#363d44" d="M749.55 338.78l50.94 61.09-.37 147.9-50.69-29.26.12-179.73z"/><path class="cls-16" d="M774.37 559l10.28 6.48s-41.74 19.47 6.79 38.67c31.08 12.29 52.65 14.08 64.15 13.79 8.66-.23 15.47-7.89 14.17-16.45-1.2-7.93-9.71-16.93-29.18-28.84-43.69-26.72-52.15-9.33-52.15-9.33l-9.43-5.85z"/><path class="cls-6" d="M778.28 513.33h-4.93v44.35a.08.08 0 000 .05c0 .66 1.11 1.19 2.47 1.19s2.46-.53 2.46-1.19a.43.43 0 000-.05z"/><path class="cls-17" d="M774 532.12s9.52 2.73 11.86 2 11.15-3.58 12.86-7.23 6.5-9.72 11.3-12.13 7.54-5.27 6.51-10.06-1.21-10.11-4.84-13.5-.26-8-1.71-12.55c-1.51-4.75-2.53-5.58 0-10.66s4-11.77 1.15-17-5.7-9.12-8.46-9.92-8.79-3.81-10.27-2.74-7.19 3.37-7.36 7.41-1.34 8.41 1.75 12.44 5.33 5.41 5.16 8.78-5.88 8.22-10.89 12.62-8.69 7.82-9.44 10.95-1.63 8.49-.33 11.26 5.11 9.5 5 10.19.71 2.59.31 5.7-5.42 12.39-5.33 12.94 2.73 1.5 2.73 1.5z"/><path class="cls-7" d="M762.51 534.45s-14.73-8.35-16.55-18.7-2.25-32.8.51-37.11 7.45-13.22 14.93-18.37 9.6-9.27 7.6-17.36-5.39-7.23-.22-18.12 3.88-12.62 7.76-14.29c3.25-1.39 13.66-3.9 15 3.11s8 18.44 9.39 26.31-8.29 25.11-4.47 27.6a18.81 18.81 0 018.55 11.9c1.19 5.59.71 11.17 0 12.74s-5.65 8.48-9.83 10.64 1.77 6-.41 12.13-10.7 6.14-10.69 10.28 2.38 5.29-3.4 9.24-18.17 0-18.17 0z"/><path class="cls-2" d="M734.05 503.3c1-14.95 4.3-39.81 16.34-47.18s5.64-30.54 8.77-34.32 13.27-22.58 21.72-23.71 6.29.79 12.14 7.87-.45 8.65-3.41 19 9.55 11.93 2 20.23-8 16.28-6.52 22.3-10.5 17.68-7.84 21.71 7 9.26 8.09 15.91-3.25 15.1-3.25 15.1.54 12.07-14.9 11.4c-27.75-1.22-34.11-13.33-33.14-28.29"/><path class="cls-5" d="M774.16 538.5a25.22 25.22 0 002.88 1.2l.44 1.13M773.68 541.51a3.36 3.36 0 001.75 0l.51 1.8M774.69 546.37a5.31 5.31 0 002.65-.53l.52 1.8"/><path class="cls-7" d="M745.84 512c.19 1.81 3.44 3.55 3.44 3.55l-3.65 3M758.05 464.86c1.68-.77 3.17-4 3.17-4l2.95 2M767.85 480.31c1.49-.46 3.1-3 3.1-3l2.26 2M765.77 428.5c.81 1.73 4.16 3.31 4.16 3.31l-2 3M773.53 416.57c2.15-.51 3.86-4.65 3.86-4.65l4.06 3.85M780 441.71c.94 1.71 5 1.7 5 1.7l-2.51 5M764.08 496.2c-2.31-.11-5.67 2.91-5.67 2.91l-2.36-4.24M766.07 523.39c2.06 1 6.38 0 6.38 0l.41 4.3M772.31 511.45c.7-1.63.2-5 .2-5l2.66-.46M741.75 487.3c1.82.52 5.14-1.07 5.14-1.07l1 3.6"/><path class="cls-5" d="M773.6 551.64c.94.27 1.84-1.63 1.84-1.63l1 1.34M775.16 555.17c.94.27 2.1-1.32 2.1-1.32l.52 1.8M774.52 537a7.66 7.66 0 002.64 0l.54.65M773.74 557.18a2 2 0 001.71-.46l.37 1.51"/><path class="cls-16" d="M306.9 747.67l18.6 11.88 3.29-1.83-17.91-11.35-3.98 1.3z"/><path class="cls-6" d="M311.15 705.51h-4.61V747a.43.43 0 000 .05c0 .62 1 1.12 2.3 1.12s2.31-.5 2.31-1.12a.43.43 0 000-.05z"/><path class="cls-17" d="M307.12 723.09s8.92 2.56 11.1 1.92 10.44-3.35 12-6.76 6.09-9.1 10.58-11.35 7.06-4.94 6.09-9.42-1.13-9.47-4.53-12.64-.24-7.46-1.6-11.75c-1.41-4.44-2.37-5.22 0-10s3.78-11 1.07-15.89-5.25-8.5-7.83-9.2-8.22-3.57-9.61-2.57-6.73 3.15-6.89 6.93-1.25 7.88 1.64 11.65 5 5.07 4.83 8.22-5.5 7.69-10.19 11.81-8.14 7.32-8.84 10.25-1.52 8-.3 10.54 4.78 8.9 4.69 9.54.66 2.43.29 5.34-5.07 11.6-5 12.11 2.5 1.27 2.5 1.27z"/><path class="cls-7" d="M296.39 725.28s-13.79-7.81-15.5-17.51-2.1-30.7.48-34.74 7-12.37 14-17.19 9-8.7 7.15-16.25-5.05-6.76-.21-17 3.64-11.81 7.27-13.37c3-1.31 12.79-3.65 14.09 2.91s7.47 17.26 8.78 24.63-7.76 23.5-4.18 25.83a17.56 17.56 0 018 11.14c1.11 5.23.67 10.45 0 11.93s-5.28 7.93-9.2 9.95 1.66 5.62-.39 11.35-10 5.76-10 9.63 2.23 5-3.18 8.65-17.11.04-17.11.04z"/><path class="cls-2" d="M269.74 696.12c.91-14 4-37.27 15.31-44.16s5.27-28.59 8.21-32.13 12.41-21.14 20.33-22.2 5.88.74 11.36 7.38-.43 8.09-3.2 17.76 8.94 11.17 1.88 18.94-7.44 15.23-6.1 20.87-9.84 16.55-7.35 20.32 6.57 8.67 7.58 14.89-3 14.14-3 14.14.5 11.3-14 10.67c-26-1.14-31.93-12.48-31-26.48"/><path class="cls-5" d="M307.29 729.07a23.52 23.52 0 002.7 1.12l.41 1.06M306.84 731.88a3.07 3.07 0 001.64 0l.48 1.69M307.79 736.44a5 5 0 002.48-.5l.49 1.68"/><path class="cls-7" d="M280.78 704.29c.18 1.69 3.23 3.33 3.23 3.33l-3.43 2.8M292.22 660.14c1.57-.72 3-3.75 3-3.75l2.76 1.83M301.39 674.6c1.39-.43 2.9-2.82 2.9-2.82l2.11 1.84M299.43 626.1c.77 1.63 3.91 3.1 3.91 3.1l-1.84 2.8M306.7 614.94c2-.48 3.61-4.36 3.61-4.36l3.8 3.61M312.74 638.47c.88 1.6 4.67 1.59 4.67 1.59l-2.35 4.67M297.85 689.47c-2.15-.1-5.3 2.73-5.3 2.73l-2.21-4M299.72 714.93c1.93 1 6 0 6 0l.39 4M305.56 703.75c.65-1.53.19-4.64.19-4.64l2.49-.43M277 681.14c1.7.49 4.81-1 4.81-1l.94 3.37"/><path class="cls-5" d="M306.77 741.37c.88.25 1.72-1.53 1.72-1.53l1 1.26M308.23 744.68c.88.24 2-1.24 2-1.24l.48 1.69M307.63 727.65a7.21 7.21 0 002.47 0l.51.61M306.9 746.55a1.81 1.81 0 001.6-.43l.34 1.42"/><path class="cls-16" d="M567.16 624.24l8.92 5.48v4.85l7.4 4.42 3.49-2.04-7.43-4.36-.17-4.7-8.23-4.94-3.98 1.29z"/><path class="cls-6" d="M571.41 582.08h-4.61v41.52c0 .62 1 1.12 2.3 1.12s2.31-.5 2.31-1.12z"/><path class="cls-17" d="M567.38 599.67s8.92 2.56 11.1 1.92 10.44-3.35 12-6.76 6.09-9.1 10.58-11.36 7.06-4.93 6.09-9.41-1.13-9.47-4.53-12.64-.24-7.46-1.6-11.75-2.37-5.22 0-10 3.77-11 1.07-15.89-5.33-8.54-7.92-9.29S586 511 584.64 512s-6.73 3.15-6.89 6.93-1.25 7.87 1.64 11.65 5 5.06 4.83 8.22-5.5 7.69-10.19 11.81-8.14 7.32-8.84 10.25-1.53 7.95-.31 10.54 4.78 8.89 4.7 9.54.66 2.43.29 5.34-5.07 11.59-5 12.1 2.51 1.29 2.51 1.29z"/><path class="cls-7" d="M556.65 601.85s-13.8-7.81-15.5-17.5-2.11-30.7.48-34.74 7-12.37 14-17.19 9-8.7 7.15-16.25-5-6.76-.21-17 3.64-11.82 7.27-13.37c3-1.31 12.78-3.65 14.09 2.91s7.47 17.26 8.78 24.62-7.76 23.51-4.18 25.83a17.65 17.65 0 018 11.14c1.11 5.24.67 10.46 0 11.93s-5.28 7.94-9.2 10 1.66 5.62-.39 11.35-10 5.76-10 9.62 2.22 4.95-3.18 8.65-17.11 0-17.11 0z"/><path class="cls-2" d="M530 572.7c.9-14 4-37.27 15.3-44.16s5.28-28.59 8.21-32.13 12.42-21.14 20.33-22.2 5.89.74 11.36 7.37-.42 8.1-3.19 17.77 8.94 11.17 1.87 18.94-7.43 15.23-6.09 20.87-9.84 16.54-7.35 20.32 6.57 8.67 7.58 14.89-3 14.14-3 14.14.5 11.3-13.94 10.66c-26-1.14-31.93-12.47-31-26.47"/><path class="cls-5" d="M567.55 605.65a23.58 23.58 0 002.69 1.12l.41 1.05M567.1 608.46a3 3 0 001.63 0l.49 1.69M568.05 613a4.88 4.88 0 002.48-.5l.49 1.69"/><path class="cls-7" d="M541 580.87c.18 1.69 3.22 3.33 3.22 3.33l-3.42 2.8M552.47 536.72c1.57-.72 3-3.76 3-3.76l2.76 1.84M561.64 551.18c1.4-.43 2.91-2.82 2.91-2.82l2.11 1.84M559.69 502.68c.77 1.63 3.9 3.1 3.9 3.1l-1.83 2.83M567 491.52c2-.49 3.61-4.36 3.61-4.36l3.8 3.61M573 515.05c.88 1.6 4.67 1.58 4.67 1.58l-2.35 4.67M558.11 566.05c-2.16-.1-5.3 2.73-5.3 2.73l-2.21-4M560 591.5c1.94 1 6 0 6 0l.39 4M565.82 580.33c.65-1.53.19-4.64.19-4.64l2.49-.43M537.21 557.72c1.71.49 4.82-1 4.82-1l.94 3.37"/><path class="cls-5" d="M567 618c.88.25 1.72-1.53 1.72-1.53l1 1.26M568.49 621.25c.87.25 2-1.23 2-1.23l.49 1.68M567.89 604.23a7.12 7.12 0 002.47-.05l.51.62M567.16 623.13a1.85 1.85 0 001.6-.43l.34 1.41"/><path class="cls-12" d="M674.08 654.26l-101.14-58.39v-74.13l101.14 58.39v74.13z"/><path class="cls-11" d="M775.22 595.87l-101.14 58.39v-74.13l101.14-58.39v74.13z"/><path class="cls-13" d="M572.94 521.74L674.08 463l101.14 58.74-101.14 58.39-101.14-58.39z"/><path class="cls-15" d="M572.94 521.74l101.14 111.15v21.37l-100.87-50.29-.27-82.23z"/><path class="cls-14" d="M674.08 654.26l23.69 14.99 102.72-58.67-25.27-14.71-101.14 58.39z"/><path class="cls-12" d="M664.93 544.64l-66.36-38.31v-76.62l66.36 38.31v76.62z"/><path class="cls-13" d="M664.92 468.03l-66.35-38.32 66.35-38.31 66.36 38.31-66.36 38.32z"/><path class="cls-11" d="M731.29 506.33l-66.36 38.31v-76.62l66.36-38.31v76.62z"/><path class="cls-14" d="M664.92 544.65l34.74 20.71 66.7-38.5-35.07-20.53-66.37 38.32z"/><path fill="#7f756a" d="M566.49 715.22l-66.36-38.31v-76.62l66.36 38.31v76.62z"/><path class="cls-13" d="M566.48 638.6l-66.35-38.31 66.35-38.31 66.36 38.31-66.36 38.31z"/><path class="cls-11" d="M632.85 676.91l-66.36 38.31V638.6l66.36-38.31v76.62z"/><path class="cls-34" d="M500.13 600.29l66.36 38.31 11.96-6.9-65.75-38.67-12.57 7.26z"/><path class="cls-14" d="M566.49 715.4l23.69 14.43 66.66-38.51-23.99-14.41-66.36 38.49z"/><path class="cls-12" d="M103.36 654.57L37 616.26v-76.62l66.36 38.31v76.62z"/><path class="cls-13" d="M103.35 577.95L37 539.64l66.35-38.32 66.36 38.32-66.36 38.31z"/><path class="cls-11" d="M169.72 616.26l-66.36 38.31v-76.62l66.36-38.31v76.62z"/><path class="cls-14" d="M103.35 654.74l45.96 27.4 56.62-47.5-36.22-18.21-66.36 38.31z"/><path class="cls-12" d="M473.34 767.58l-66.36-38.31v-47.2l66.36 38.31v47.2z"/><path class="cls-13" d="M473.33 720.38l-66.35-38.31 66.35-38.31 66.36 38.31-66.36 38.31z"/><path class="cls-11" d="M539.7 729.27l-66.36 38.31v-47.2l66.36-38.31v47.2z"/><path class="cls-34" d="M461.79 649.52l65.45 39.74 12.46-7.19-66.37-38.31-11.54 5.76z"/><path opacity=".6" fill="#363d44" d="M425.85 740.17l.53-46.51-20.32-12.68v49.28l19.79 9.91z"/><path opacity=".23" fill="#363d44" d="M406.98 681.41l17.84 11.26 1.56.99 54.94-32.3-18.86-11.43-55.48 31.48z"/><path class="cls-14" d="M473.33 768.41l24.06 13.02 66.87-38.63-24.56-13.53-66.37 39.14zM209.66 715.56l33.7 20.09 68.88-40.19-36.22-18.21-66.36 38.31z"/><path class="cls-12" d="M209.66 715.56l-66.36-38.31v-47.2l66.36 38.31v47.2z"/><path class="cls-13" d="M209.66 668.36l-66.36-38.31 66.36-38.32 66.35 38.32-66.35 38.31z"/><path class="cls-11" d="M276.02 677.25l-66.36 38.31v-47.2l66.36-38.31v47.2z"/><path class="cls-12" d="M635.01 306.65l-66.36-38.3.01-76.63 66.35 38.31v76.62z"/><path class="cls-13" d="M635.01 230.04l-66.36-38.32 66.36-38.31 66.36 38.31-66.36 38.32z"/><path class="cls-11" d="M701.38 268.35l-66.36 38.3-.01-76.62 66.36-38.31.01 76.63z"/><path class="cls-14" d="M635.01 306.68l15.52 9.25 66.11-38.17-15.26-9.41-66.37 38.33z"/><path class="cls-11" d="M426.87 764.87l-50.68 29.25-.01-180.19 50.68-29.26.01 180.2z"/><path class="cls-12" d="M376.18 794.12l-50.68-29.25v-180.2l50.68 29.26v180.19z"/><path class="cls-13" d="M325.62 585.13l50.56-30.11 50.57 30.11-50.57 29.2-50.56-29.2z"/><path class="cls-14" d="M376.19 794.12l53.56 29.8 51.57-29.8-54.45-29.25-50.68 29.25z"/></g></g></svg>